<?xml version="1.0" encoding="UTF-8"?>
<!DOCTYPE svg PUBLIC "-//W3C//DTD SVG 1.1//EN" "http://www.w3.org/Graphics/SVG/1.1/DTD/svg11.dtd">
<svg width="277mm" height="156mm" viewBox="0 0 27700 15600" version="1.1" xmlns="http://www.w3.org/2000/svg" xmlns:xlink="http://www.w3.org/1999/xlink" stroke-width="28.222" stroke-linejoin="round" xml:space="preserve">
 <path fill="rgb(255,255,255)" stroke="none" d="M 13842,15571 L 0,15571 0,0 27683,0 27683,15571 13842,15571 Z"/>
 <path fill="none" stroke="rgb(179,179,179)" stroke-linejoin="round" d="M 13010,13632 L 3032,13632 3032,1736 22988,1736 22988,13632 13010,13632 Z"/>
 <path fill="none" stroke="rgb(179,179,179)" stroke-linejoin="round" d="M 22988,13631 L 3032,13631"/>
 <path fill="none" stroke="rgb(179,179,179)" stroke-linejoin="round" d="M 22988,11251 L 3032,11251"/>
 <path fill="none" stroke="rgb(179,179,179)" stroke-linejoin="round" d="M 22988,8872 L 3032,8872"/>
 <path fill="none" stroke="rgb(179,179,179)" stroke-linejoin="round" d="M 22988,6493 L 3032,6493"/>
 <path fill="none" stroke="rgb(179,179,179)" stroke-linejoin="round" d="M 22988,4114 L 3032,4114"/>
 <path fill="none" stroke="rgb(179,179,179)" stroke-linejoin="round" d="M 22988,1735 L 3032,1735"/>
 <path fill="none" stroke="rgb(221,221,221)" stroke-linejoin="round" d="M 22988,12914 L 3032,12914"/>
 <path fill="none" stroke="rgb(221,221,221)" stroke-linejoin="round" d="M 22988,12495 L 3032,12495"/>
 <path fill="none" stroke="rgb(221,221,221)" stroke-linejoin="round" d="M 22988,12198 L 3032,12198"/>
 <path fill="none" stroke="rgb(221,221,221)" stroke-linejoin="round" d="M 22988,11967 L 3032,11967"/>
 <path fill="none" stroke="rgb(221,221,221)" stroke-linejoin="round" d="M 22988,11779 L 3032,11779"/>
 <path fill="none" stroke="rgb(221,221,221)" stroke-linejoin="round" d="M 22988,11620 L 3032,11620"/>
 <path fill="none" stroke="rgb(221,221,221)" stroke-linejoin="round" d="M 22988,11482 L 3032,11482"/>
 <path fill="none" stroke="rgb(221,221,221)" stroke-linejoin="round" d="M 22988,11360 L 3032,11360"/>
 <path fill="none" stroke="rgb(221,221,221)" stroke-linejoin="round" d="M 22988,10535 L 3032,10535"/>
 <path fill="none" stroke="rgb(221,221,221)" stroke-linejoin="round" d="M 22988,10116 L 3032,10116"/>
 <path fill="none" stroke="rgb(221,221,221)" stroke-linejoin="round" d="M 22988,9819 L 3032,9819"/>
 <path fill="none" stroke="rgb(221,221,221)" stroke-linejoin="round" d="M 22988,9588 L 3032,9588"/>
 <path fill="none" stroke="rgb(221,221,221)" stroke-linejoin="round" d="M 22988,9400 L 3032,9400"/>
 <path fill="none" stroke="rgb(221,221,221)" stroke-linejoin="round" d="M 22988,9240 L 3032,9240"/>
 <path fill="none" stroke="rgb(221,221,221)" stroke-linejoin="round" d="M 22988,9102 L 3032,9102"/>
 <path fill="none" stroke="rgb(221,221,221)" stroke-linejoin="round" d="M 22988,8981 L 3032,8981"/>
 <path fill="none" stroke="rgb(221,221,221)" stroke-linejoin="round" d="M 22988,8155 L 3032,8155"/>
 <path fill="none" stroke="rgb(221,221,221)" stroke-linejoin="round" d="M 22988,7737 L 3032,7737"/>
 <path fill="none" stroke="rgb(221,221,221)" stroke-linejoin="round" d="M 22988,7440 L 3032,7440"/>
 <path fill="none" stroke="rgb(221,221,221)" stroke-linejoin="round" d="M 22988,7210 L 3032,7210"/>
 <path fill="none" stroke="rgb(221,221,221)" stroke-linejoin="round" d="M 22988,7021 L 3032,7021"/>
 <path fill="none" stroke="rgb(221,221,221)" stroke-linejoin="round" d="M 22988,6862 L 3032,6862"/>
 <path fill="none" stroke="rgb(221,221,221)" stroke-linejoin="round" d="M 22988,6724 L 3032,6724"/>
 <path fill="none" stroke="rgb(221,221,221)" stroke-linejoin="round" d="M 22988,6602 L 3032,6602"/>
 <path fill="none" stroke="rgb(221,221,221)" stroke-linejoin="round" d="M 22988,5777 L 3032,5777"/>
 <path fill="none" stroke="rgb(221,221,221)" stroke-linejoin="round" d="M 22988,5358 L 3032,5358"/>
 <path fill="none" stroke="rgb(221,221,221)" stroke-linejoin="round" d="M 22988,5061 L 3032,5061"/>
 <path fill="none" stroke="rgb(221,221,221)" stroke-linejoin="round" d="M 22988,4830 L 3032,4830"/>
 <path fill="none" stroke="rgb(221,221,221)" stroke-linejoin="round" d="M 22988,4642 L 3032,4642"/>
 <path fill="none" stroke="rgb(221,221,221)" stroke-linejoin="round" d="M 22988,4482 L 3032,4482"/>
 <path fill="none" stroke="rgb(221,221,221)" stroke-linejoin="round" d="M 22988,4344 L 3032,4344"/>
 <path fill="none" stroke="rgb(221,221,221)" stroke-linejoin="round" d="M 22988,4223 L 3032,4223"/>
 <path fill="none" stroke="rgb(221,221,221)" stroke-linejoin="round" d="M 22988,3398 L 3032,3398"/>
 <path fill="none" stroke="rgb(221,221,221)" stroke-linejoin="round" d="M 22988,2979 L 3032,2979"/>
 <path fill="none" stroke="rgb(221,221,221)" stroke-linejoin="round" d="M 22988,2681 L 3032,2681"/>
 <path fill="none" stroke="rgb(221,221,221)" stroke-linejoin="round" d="M 22988,2451 L 3032,2451"/>
 <path fill="none" stroke="rgb(221,221,221)" stroke-linejoin="round" d="M 22988,2262 L 3032,2262"/>
 <path fill="none" stroke="rgb(221,221,221)" stroke-linejoin="round" d="M 22988,2103 L 3032,2103"/>
 <path fill="none" stroke="rgb(221,221,221)" stroke-linejoin="round" d="M 22988,1965 L 3032,1965"/>
 <path fill="none" stroke="rgb(221,221,221)" stroke-linejoin="round" d="M 22988,1843 L 3032,1843"/>
 <path fill="none" stroke="rgb(179,179,179)" stroke-linejoin="round" d="M 3032,13781 L 3032,13631"/>
 <path fill="none" stroke="rgb(179,179,179)" stroke-linejoin="round" d="M 3032,13781 L 3032,13631"/>
 <path fill="none" stroke="rgb(179,179,179)" stroke-linejoin="round" d="M 4362,13781 L 4362,13631"/>
 <path fill="none" stroke="rgb(179,179,179)" stroke-linejoin="round" d="M 4362,13781 L 4362,13631"/>
 <path fill="none" stroke="rgb(179,179,179)" stroke-linejoin="round" d="M 5692,13781 L 5692,13631"/>
 <path fill="none" stroke="rgb(179,179,179)" stroke-linejoin="round" d="M 5692,13781 L 5692,13631"/>
 <path fill="none" stroke="rgb(179,179,179)" stroke-linejoin="round" d="M 7023,13781 L 7023,13631"/>
 <path fill="none" stroke="rgb(179,179,179)" stroke-linejoin="round" d="M 7023,13781 L 7023,13631"/>
 <path fill="none" stroke="rgb(179,179,179)" stroke-linejoin="round" d="M 8353,13781 L 8353,13631"/>
 <path fill="none" stroke="rgb(179,179,179)" stroke-linejoin="round" d="M 8353,13781 L 8353,13631"/>
 <path fill="none" stroke="rgb(179,179,179)" stroke-linejoin="round" d="M 9684,13781 L 9684,13631"/>
 <path fill="none" stroke="rgb(179,179,179)" stroke-linejoin="round" d="M 9684,13781 L 9684,13631"/>
 <path fill="none" stroke="rgb(179,179,179)" stroke-linejoin="round" d="M 11014,13781 L 11014,13631"/>
 <path fill="none" stroke="rgb(179,179,179)" stroke-linejoin="round" d="M 11014,13781 L 11014,13631"/>
 <path fill="none" stroke="rgb(179,179,179)" stroke-linejoin="round" d="M 12345,13781 L 12345,13631"/>
 <path fill="none" stroke="rgb(179,179,179)" stroke-linejoin="round" d="M 12345,13781 L 12345,13631"/>
 <path fill="none" stroke="rgb(179,179,179)" stroke-linejoin="round" d="M 13675,13781 L 13675,13631"/>
 <path fill="none" stroke="rgb(179,179,179)" stroke-linejoin="round" d="M 13675,13781 L 13675,13631"/>
 <path fill="none" stroke="rgb(179,179,179)" stroke-linejoin="round" d="M 15005,13781 L 15005,13631"/>
 <path fill="none" stroke="rgb(179,179,179)" stroke-linejoin="round" d="M 15005,13781 L 15005,13631"/>
 <path fill="none" stroke="rgb(179,179,179)" stroke-linejoin="round" d="M 16335,13781 L 16335,13631"/>
 <path fill="none" stroke="rgb(179,179,179)" stroke-linejoin="round" d="M 16335,13781 L 16335,13631"/>
 <path fill="none" stroke="rgb(179,179,179)" stroke-linejoin="round" d="M 17666,13781 L 17666,13631"/>
 <path fill="none" stroke="rgb(179,179,179)" stroke-linejoin="round" d="M 17666,13781 L 17666,13631"/>
 <path fill="none" stroke="rgb(179,179,179)" stroke-linejoin="round" d="M 18996,13781 L 18996,13631"/>
 <path fill="none" stroke="rgb(179,179,179)" stroke-linejoin="round" d="M 18996,13781 L 18996,13631"/>
 <path fill="none" stroke="rgb(179,179,179)" stroke-linejoin="round" d="M 20327,13781 L 20327,13631"/>
 <path fill="none" stroke="rgb(179,179,179)" stroke-linejoin="round" d="M 20327,13781 L 20327,13631"/>
 <path fill="none" stroke="rgb(179,179,179)" stroke-linejoin="round" d="M 21657,13781 L 21657,13631"/>
 <path fill="none" stroke="rgb(179,179,179)" stroke-linejoin="round" d="M 21657,13781 L 21657,13631"/>
 <path fill="none" stroke="rgb(179,179,179)" stroke-linejoin="round" d="M 22988,13781 L 22988,13631"/>
 <path fill="none" stroke="rgb(179,179,179)" stroke-linejoin="round" d="M 22988,13781 L 22988,13631"/>
 <path fill="none" stroke="rgb(179,179,179)" stroke-linejoin="round" d="M 3032,13631 L 22988,13631"/>
 <path fill="none" stroke="rgb(179,179,179)" stroke-linejoin="round" d="M 2882,13631 L 3032,13631"/>
 <path fill="none" stroke="rgb(179,179,179)" stroke-linejoin="round" d="M 2882,13631 L 3032,13631"/>
 <path fill="none" stroke="rgb(179,179,179)" stroke-linejoin="round" d="M 2882,11251 L 3032,11251"/>
 <path fill="none" stroke="rgb(179,179,179)" stroke-linejoin="round" d="M 2882,11251 L 3032,11251"/>
 <path fill="none" stroke="rgb(179,179,179)" stroke-linejoin="round" d="M 2882,8872 L 3032,8872"/>
 <path fill="none" stroke="rgb(179,179,179)" stroke-linejoin="round" d="M 2882,8872 L 3032,8872"/>
 <path fill="none" stroke="rgb(179,179,179)" stroke-linejoin="round" d="M 2882,6493 L 3032,6493"/>
 <path fill="none" stroke="rgb(179,179,179)" stroke-linejoin="round" d="M 2882,6493 L 3032,6493"/>
 <path fill="none" stroke="rgb(179,179,179)" stroke-linejoin="round" d="M 2882,4114 L 3032,4114"/>
 <path fill="none" stroke="rgb(179,179,179)" stroke-linejoin="round" d="M 2882,4114 L 3032,4114"/>
 <path fill="none" stroke="rgb(179,179,179)" stroke-linejoin="round" d="M 2882,1735 L 3032,1735"/>
 <path fill="none" stroke="rgb(179,179,179)" stroke-linejoin="round" d="M 2882,1735 L 3032,1735"/>
 <path fill="none" stroke="rgb(179,179,179)" stroke-linejoin="round" d="M 3032,13631 L 3032,1735"/>
 <path fill="rgb(0,69,134)" stroke="none" d="M 21790,13631 L 22056,13631 22056,3999 21790,3999 21790,13631 Z"/>
 <path fill="rgb(0,69,134)" stroke="none" d="M 20460,13631 L 20726,13631 20726,4671 20460,4671 20460,13631 Z"/>
 <path fill="rgb(0,69,134)" stroke="none" d="M 19129,13631 L 19395,13631 19395,5194 19129,5194 19129,13631 Z"/>
 <path fill="rgb(0,69,134)" stroke="none" d="M 17799,13631 L 18065,13631 18065,5689 17799,5689 17799,13631 Z"/>
 <path fill="rgb(0,69,134)" stroke="none" d="M 16468,13631 L 16734,13631 16734,5875 16468,5875 16468,13631 Z"/>
 <path fill="rgb(0,69,134)" stroke="none" d="M 15138,13631 L 15404,13631 15404,6195 15138,6195 15138,13631 Z"/>
 <path fill="rgb(0,69,134)" stroke="none" d="M 13808,13631 L 14073,13631 14073,6667 13808,6667 13808,13631 Z"/>
 <path fill="rgb(0,69,134)" stroke="none" d="M 12478,13631 L 12744,13631 12744,7518 12478,7518 12478,13631 Z"/>
 <path fill="rgb(0,69,134)" stroke="none" d="M 11147,13631 L 11413,13631 11413,8511 11147,8511 11147,13631 Z"/>
 <path fill="rgb(0,69,134)" stroke="none" d="M 9817,13631 L 10083,13631 10083,9146 9817,9146 9817,13631 Z"/>
 <path fill="rgb(0,69,134)" stroke="none" d="M 8486,13631 L 8753,13631 8753,9557 8486,9557 8486,13631 Z"/>
 <path fill="rgb(0,69,134)" stroke="none" d="M 7156,13631 L 7422,13631 7422,9914 7156,9914 7156,13631 Z"/>
 <path fill="rgb(0,69,134)" stroke="none" d="M 5825,13631 L 6092,13631 6092,10631 5825,10631 5825,13631 Z"/>
 <path fill="rgb(0,69,134)" stroke="none" d="M 4495,13631 L 4761,13631 4761,11260 4495,11260 4495,13631 Z"/>
 <path fill="rgb(0,69,134)" stroke="none" d="M 3165,13631 L 3431,13631 3431,11803 3165,11803 3165,13631 Z"/>
 <path fill="rgb(255,66,14)" stroke="none" d="M 22056,13631 L 22322,13631 22322,3318 22056,3318 22056,13631 Z"/>
 <path fill="rgb(255,66,14)" stroke="none" d="M 20726,13631 L 20992,13631 20992,3677 20726,3677 20726,13631 Z"/>
 <path fill="rgb(255,66,14)" stroke="none" d="M 19395,13631 L 19661,13631 19661,4355 19395,4355 19395,13631 Z"/>
 <path fill="rgb(255,66,14)" stroke="none" d="M 18065,13631 L 18331,13631 18331,5046 18065,5046 18065,13631 Z"/>
 <path fill="rgb(255,66,14)" stroke="none" d="M 16734,13631 L 17000,13631 17000,5742 16734,5742 16734,13631 Z"/>
 <path fill="rgb(255,66,14)" stroke="none" d="M 15404,13631 L 15670,13631 15670,6533 15404,6533 15404,13631 Z"/>
 <path fill="rgb(255,66,14)" stroke="none" d="M 14073,13631 L 14339,13631 14339,7346 14073,7346 14073,13631 Z"/>
 <path fill="rgb(255,66,14)" stroke="none" d="M 12744,13631 L 13010,13631 13010,8085 12744,8085 12744,13631 Z"/>
 <path fill="rgb(255,66,14)" stroke="none" d="M 11413,13631 L 11680,13631 11680,8762 11413,8762 11413,13631 Z"/>
 <path fill="rgb(255,66,14)" stroke="none" d="M 10083,13631 L 10349,13631 10349,9150 10083,9150 10083,13631 Z"/>
 <path fill="rgb(255,66,14)" stroke="none" d="M 8753,13631 L 9019,13631 9019,9746 8753,9746 8753,13631 Z"/>
 <path fill="rgb(255,66,14)" stroke="none" d="M 7422,13631 L 7688,13631 7688,10533 7422,10533 7422,13631 Z"/>
 <path fill="rgb(255,66,14)" stroke="none" d="M 6092,13631 L 6358,13631 6358,10793 6092,10793 6092,13631 Z"/>
 <path fill="rgb(255,66,14)" stroke="none" d="M 4761,13631 L 5027,13631 5027,11417 4761,11417 4761,13631 Z"/>
 <path fill="rgb(255,66,14)" stroke="none" d="M 3431,13631 L 3697,13631 3697,11864 3431,11864 3431,13631 Z"/>
 <path fill="rgb(255,211,32)" stroke="none" d="M 22322,13631 L 22588,13631 22588,3166 22322,3166 22322,13631 Z"/>
 <path fill="rgb(255,211,32)" stroke="none" d="M 20992,13631 L 21258,13631 21258,3918 20992,3918 20992,13631 Z"/>
 <path fill="rgb(255,211,32)" stroke="none" d="M 19661,13631 L 19927,13631 19927,4761 19661,4761 19661,13631 Z"/>
 <path fill="rgb(255,211,32)" stroke="none" d="M 18331,13631 L 18597,13631 18597,5347 18331,5347 18331,13631 Z"/>
 <path fill="rgb(255,211,32)" stroke="none" d="M 17000,13631 L 17266,13631 17266,6037 17000,6037 17000,13631 Z"/>
 <path fill="rgb(255,211,32)" stroke="none" d="M 15670,13631 L 15936,13631 15936,6591 15670,6591 15670,13631 Z"/>
 <path fill="rgb(255,211,32)" stroke="none" d="M 14339,13631 L 14606,13631 14606,7438 14339,7438 14339,13631 Z"/>
 <path fill="rgb(255,211,32)" stroke="none" d="M 13010,13631 L 13276,13631 13276,8145 13010,8145 13010,13631 Z"/>
 <path fill="rgb(255,211,32)" stroke="none" d="M 11680,13631 L 11946,13631 11946,9047 11680,9047 11680,13631 Z"/>
 <path fill="rgb(255,211,32)" stroke="none" d="M 10349,13631 L 10615,13631 10615,9709 10349,9709 10349,13631 Z"/>
 <path fill="rgb(255,211,32)" stroke="none" d="M 9019,13631 L 9285,13631 9285,10607 9019,10607 9019,13631 Z"/>
 <path fill="rgb(255,211,32)" stroke="none" d="M 7688,13631 L 7954,13631 7954,11360 7688,11360 7688,13631 Z"/>
 <path fill="rgb(255,211,32)" stroke="none" d="M 6358,13631 L 6624,13631 6624,11869 6358,11869 6358,13631 Z"/>
 <path fill="rgb(255,211,32)" stroke="none" d="M 5027,13631 L 5293,13631 5293,12460 5027,12460 5027,13631 Z"/>
 <path fill="rgb(255,211,32)" stroke="none" d="M 3697,13631 L 3963,13631 3963,12732 3697,12732 3697,13631 Z"/>
 <path fill="rgb(87,157,28)" stroke="none" d="M 22588,13631 L 22854,13631 22854,3225 22588,3225 22588,13631 Z"/>
 <path fill="rgb(87,157,28)" stroke="none" d="M 21258,13631 L 21524,13631 21524,3912 21258,3912 21258,13631 Z"/>
 <path fill="rgb(87,157,28)" stroke="none" d="M 19927,13631 L 20194,13631 20194,4644 19927,4644 19927,13631 Z"/>
 <path fill="rgb(87,157,28)" stroke="none" d="M 18597,13631 L 18863,13631 18863,5358 18597,5358 18597,13631 Z"/>
 <path fill="rgb(87,157,28)" stroke="none" d="M 17266,13631 L 17533,13631 17533,6048 17266,6048 17266,13631 Z"/>
 <path fill="rgb(87,157,28)" stroke="none" d="M 15936,13631 L 16202,13631 16202,6987 15936,6987 15936,13631 Z"/>
 <path fill="rgb(87,157,28)" stroke="none" d="M 14606,13631 L 14872,13631 14872,7707 14606,7707 14606,13631 Z"/>
 <path fill="rgb(87,157,28)" stroke="none" d="M 13276,13631 L 13542,13631 13542,8460 13276,8460 13276,13631 Z"/>
 <path fill="rgb(87,157,28)" stroke="none" d="M 11946,13631 L 12212,13631 12212,9107 11946,9107 11946,13631 Z"/>
 <path fill="rgb(87,157,28)" stroke="none" d="M 10615,13631 L 10881,13631 10881,9217 10615,9217 10615,13631 Z"/>
 <path fill="rgb(87,157,28)" stroke="none" d="M 9285,13631 L 9551,13631 9551,9844 9285,9844 9285,13631 Z"/>
 <path fill="rgb(87,157,28)" stroke="none" d="M 7954,13631 L 8220,13631 8220,11089 7954,11089 7954,13631 Z"/>
 <path fill="rgb(87,157,28)" stroke="none" d="M 6624,13631 L 6890,13631 6890,11738 6624,11738 6624,13631 Z"/>
 <path fill="rgb(87,157,28)" stroke="none" d="M 5293,13631 L 5559,13631 5559,12236 5293,12236 5293,13631 Z"/>
 <path fill="rgb(87,157,28)" stroke="none" d="M 3963,13631 L 4229,13631 4229,12621 3963,12621 3963,13631 Z"/>
 <text class="TextShape"><tspan class="TextParagraph" font-family="Liberation Sans, sans-serif" font-size="353px" font-weight="400"><tspan class="TextPosition" x="3512" y="14199"><tspan fill="rgb(0,0,0)" stroke="none">32</tspan></tspan></tspan></text>
 <text class="TextShape"><tspan class="TextParagraph" font-family="Liberation Sans, sans-serif" font-size="353px" font-weight="400"><tspan class="TextPosition" x="4842" y="14199"><tspan fill="rgb(0,0,0)" stroke="none">64</tspan></tspan></tspan></text>
 <text class="TextShape"><tspan class="TextParagraph" font-family="Liberation Sans, sans-serif" font-size="353px" font-weight="400"><tspan class="TextPosition" x="6080" y="14199"><tspan fill="rgb(0,0,0)" stroke="none">128</tspan></tspan></tspan></text>
 <text class="TextShape"><tspan class="TextParagraph" font-family="Liberation Sans, sans-serif" font-size="353px" font-weight="400"><tspan class="TextPosition" x="7410" y="14199"><tspan fill="rgb(0,0,0)" stroke="none">256</tspan></tspan></tspan></text>
 <text class="TextShape"><tspan class="TextParagraph" font-family="Liberation Sans, sans-serif" font-size="353px" font-weight="400"><tspan class="TextPosition" x="8741" y="14199"><tspan fill="rgb(0,0,0)" stroke="none">512</tspan></tspan></tspan></text>
 <text class="TextShape"><tspan class="TextParagraph" font-family="Liberation Sans, sans-serif" font-size="353px" font-weight="400"><tspan class="TextPosition" x="9925" y="14199"><tspan fill="rgb(0,0,0)" stroke="none">1,024</tspan></tspan></tspan></text>
 <text class="TextShape"><tspan class="TextParagraph" font-family="Liberation Sans, sans-serif" font-size="353px" font-weight="400"><tspan class="TextPosition" x="11256" y="14199"><tspan fill="rgb(0,0,0)" stroke="none">2,048</tspan></tspan></tspan></text>
 <text class="TextShape"><tspan class="TextParagraph" font-family="Liberation Sans, sans-serif" font-size="353px" font-weight="400"><tspan class="TextPosition" x="12586" y="14199"><tspan fill="rgb(0,0,0)" stroke="none">4,096</tspan></tspan></tspan></text>
 <text class="TextShape"><tspan class="TextParagraph" font-family="Liberation Sans, sans-serif" font-size="353px" font-weight="400"><tspan class="TextPosition" x="13916" y="14199"><tspan fill="rgb(0,0,0)" stroke="none">8,192</tspan></tspan></tspan></text>
 <text class="TextShape"><tspan class="TextParagraph" font-family="Liberation Sans, sans-serif" font-size="353px" font-weight="400"><tspan class="TextPosition" x="15155" y="14199"><tspan fill="rgb(0,0,0)" stroke="none">16,384</tspan></tspan></tspan></text>
 <text class="TextShape"><tspan class="TextParagraph" font-family="Liberation Sans, sans-serif" font-size="353px" font-weight="400"><tspan class="TextPosition" x="16485" y="14199"><tspan fill="rgb(0,0,0)" stroke="none">32,768</tspan></tspan></tspan></text>
 <text class="TextShape"><tspan class="TextParagraph" font-family="Liberation Sans, sans-serif" font-size="353px" font-weight="400"><tspan class="TextPosition" x="17816" y="14199"><tspan fill="rgb(0,0,0)" stroke="none">65,536</tspan></tspan></tspan></text>
 <text class="TextShape"><tspan class="TextParagraph" font-family="Liberation Sans, sans-serif" font-size="353px" font-weight="400"><tspan class="TextPosition" x="19053" y="14199"><tspan fill="rgb(0,0,0)" stroke="none">131,072</tspan></tspan></tspan></text>
 <text class="TextShape"><tspan class="TextParagraph" font-family="Liberation Sans, sans-serif" font-size="353px" font-weight="400"><tspan class="TextPosition" x="20384" y="14199"><tspan fill="rgb(0,0,0)" stroke="none">262,144</tspan></tspan></tspan></text>
 <text class="TextShape"><tspan class="TextParagraph" font-family="Liberation Sans, sans-serif" font-size="353px" font-weight="400"><tspan class="TextPosition" x="21714" y="14199"><tspan fill="rgb(0,0,0)" stroke="none">524,288</tspan></tspan></tspan></text>
 <text class="TextShape"><tspan class="TextParagraph" font-family="Liberation Sans, sans-serif" font-size="353px" font-weight="400"><tspan class="TextPosition" x="2597" y="13752"><tspan fill="rgb(0,0,0)" stroke="none">1</tspan></tspan></tspan></text>
 <text class="TextShape"><tspan class="TextParagraph" font-family="Liberation Sans, sans-serif" font-size="353px" font-weight="400"><tspan class="TextPosition" x="2412" y="11372"><tspan fill="rgb(0,0,0)" stroke="none">10</tspan></tspan></tspan></text>
 <text class="TextShape"><tspan class="TextParagraph" font-family="Liberation Sans, sans-serif" font-size="353px" font-weight="400"><tspan class="TextPosition" x="2226" y="8993"><tspan fill="rgb(0,0,0)" stroke="none">100</tspan></tspan></tspan></text>
 <text class="TextShape"><tspan class="TextParagraph" font-family="Liberation Sans, sans-serif" font-size="353px" font-weight="400"><tspan class="TextPosition" x="1935" y="6613"><tspan fill="rgb(0,0,0)" stroke="none">1,000</tspan></tspan></tspan></text>
 <text class="TextShape"><tspan class="TextParagraph" font-family="Liberation Sans, sans-serif" font-size="353px" font-weight="400"><tspan class="TextPosition" x="1750" y="4234"><tspan fill="rgb(0,0,0)" stroke="none">10,000</tspan></tspan></tspan></text>
 <text class="TextShape"><tspan class="TextParagraph" font-family="Liberation Sans, sans-serif" font-size="353px" font-weight="400"><tspan class="TextPosition" x="1565" y="1855"><tspan fill="rgb(0,0,0)" stroke="none">100,000</tspan></tspan></tspan></text>
 <text class="TextShape"><tspan class="TextParagraph" font-family="Liberation Sans, sans-serif" font-size="459px" font-weight="400"><tspan class="TextPosition" x="11500" y="982"><tspan fill="rgb(0,0,0)" stroke="none">Subsequent writes (log)</tspan></tspan></tspan></text>
 <path fill="rgb(0,69,134)" stroke="none" d="M 23763,7144 L 23657,7144 23657,6933 23868,6933 23868,7144 23763,7144 Z"/>
 <path fill="rgb(255,66,14)" stroke="none" d="M 23763,7642 L 23657,7642 23657,7431 23868,7431 23868,7642 23763,7642 Z"/>
 <path fill="rgb(255,211,32)" stroke="none" d="M 23763,8139 L 23657,8139 23657,7928 23868,7928 23868,8139 23763,8139 Z"/>
 <path fill="rgb(87,157,28)" stroke="none" d="M 23763,8637 L 23657,8637 23657,8426 23868,8426 23868,8637 23763,8637 Z"/>
 <text class="TextShape"><tspan class="TextParagraph" font-family="Liberation Sans, sans-serif" font-size="353px" font-weight="400"><tspan class="TextPosition" x="23968" y="7158"><tspan fill="rgb(0,0,0)" stroke="none">boxed subsequent</tspan></tspan></tspan></text>
 <text class="TextShape"><tspan class="TextParagraph" font-family="Liberation Sans, sans-serif" font-size="353px" font-weight="400"><tspan class="TextPosition" x="23968" y="7656"><tspan fill="rgb(0,0,0)" stroke="none">flat subsequent</tspan></tspan></tspan></text>
 <text class="TextShape"><tspan class="TextParagraph" font-family="Liberation Sans, sans-serif" font-size="353px" font-weight="400"><tspan class="TextPosition" x="23968" y="8153"><tspan fill="rgb(0,0,0)" stroke="none">padded subsequent</tspan></tspan></tspan></text>
 <text class="TextShape"><tspan class="TextParagraph" font-family="Liberation Sans, sans-serif" font-size="353px" font-weight="400"><tspan class="TextPosition" x="23968" y="8651"><tspan fill="rgb(0,0,0)" stroke="none">remapped subsequent</tspan></tspan></tspan></text>
 <text class="TextShape"><tspan class="TextParagraph" font-family="Liberation Sans, sans-serif" font-size="318px" font-weight="400"><tspan class="TextPosition" x="11416" y="14977"><tspan fill="rgb(0,0,0)" stroke="none">array length</tspan></tspan></tspan></text>
 <text class="TextShape" transform="rotate(-90 837 8569)"><tspan class="TextParagraph" font-family="Liberation Sans, sans-serif" font-size="318px" font-weight="400"><tspan class="TextPosition" x="837" y="8569"><tspan fill="rgb(0,0,0)" stroke="none">time (ms)</tspan></tspan></tspan></text>
</svg>