<?xml version="1.0" encoding="UTF-8"?>
<!DOCTYPE svg PUBLIC "-//W3C//DTD SVG 1.1//EN" "http://www.w3.org/Graphics/SVG/1.1/DTD/svg11.dtd">
<svg width="278mm" height="157mm" viewBox="0 0 27800 15700" version="1.1" xmlns="http://www.w3.org/2000/svg" xmlns:xlink="http://www.w3.org/1999/xlink" stroke-width="28.222" stroke-linejoin="round" xml:space="preserve">
 <path fill="rgb(255,255,255)" stroke="none" d="M 13912,15650 L 0,15650 0,0 27824,0 27824,15650 13912,15650 Z"/>
 <path fill="none" stroke="rgb(179,179,179)" stroke-linejoin="round" d="M 13398,13709 L 3035,13709 3035,1740 23761,1740 23761,13709 13398,13709 Z"/>
 <path fill="none" stroke="rgb(179,179,179)" stroke-linejoin="round" d="M 23761,13708 L 3035,13708"/>
 <path fill="none" stroke="rgb(179,179,179)" stroke-linejoin="round" d="M 23761,12378 L 3035,12378"/>
 <path fill="none" stroke="rgb(179,179,179)" stroke-linejoin="round" d="M 23761,11048 L 3035,11048"/>
 <path fill="none" stroke="rgb(179,179,179)" stroke-linejoin="round" d="M 23761,9718 L 3035,9718"/>
 <path fill="none" stroke="rgb(179,179,179)" stroke-linejoin="round" d="M 23761,8388 L 3035,8388"/>
 <path fill="none" stroke="rgb(179,179,179)" stroke-linejoin="round" d="M 23761,7059 L 3035,7059"/>
 <path fill="none" stroke="rgb(179,179,179)" stroke-linejoin="round" d="M 23761,5729 L 3035,5729"/>
 <path fill="none" stroke="rgb(179,179,179)" stroke-linejoin="round" d="M 23761,4399 L 3035,4399"/>
 <path fill="none" stroke="rgb(179,179,179)" stroke-linejoin="round" d="M 23761,3069 L 3035,3069"/>
 <path fill="none" stroke="rgb(179,179,179)" stroke-linejoin="round" d="M 23761,1739 L 3035,1739"/>
 <path fill="none" stroke="rgb(179,179,179)" stroke-linejoin="round" d="M 3035,13858 L 3035,13708"/>
 <path fill="none" stroke="rgb(179,179,179)" stroke-linejoin="round" d="M 3035,13858 L 3035,13708"/>
 <path fill="none" stroke="rgb(179,179,179)" stroke-linejoin="round" d="M 4416,13858 L 4416,13708"/>
 <path fill="none" stroke="rgb(179,179,179)" stroke-linejoin="round" d="M 4416,13858 L 4416,13708"/>
 <path fill="none" stroke="rgb(179,179,179)" stroke-linejoin="round" d="M 5798,13858 L 5798,13708"/>
 <path fill="none" stroke="rgb(179,179,179)" stroke-linejoin="round" d="M 5798,13858 L 5798,13708"/>
 <path fill="none" stroke="rgb(179,179,179)" stroke-linejoin="round" d="M 7180,13858 L 7180,13708"/>
 <path fill="none" stroke="rgb(179,179,179)" stroke-linejoin="round" d="M 7180,13858 L 7180,13708"/>
 <path fill="none" stroke="rgb(179,179,179)" stroke-linejoin="round" d="M 8562,13858 L 8562,13708"/>
 <path fill="none" stroke="rgb(179,179,179)" stroke-linejoin="round" d="M 8562,13858 L 8562,13708"/>
 <path fill="none" stroke="rgb(179,179,179)" stroke-linejoin="round" d="M 9944,13858 L 9944,13708"/>
 <path fill="none" stroke="rgb(179,179,179)" stroke-linejoin="round" d="M 9944,13858 L 9944,13708"/>
 <path fill="none" stroke="rgb(179,179,179)" stroke-linejoin="round" d="M 11325,13858 L 11325,13708"/>
 <path fill="none" stroke="rgb(179,179,179)" stroke-linejoin="round" d="M 11325,13858 L 11325,13708"/>
 <path fill="none" stroke="rgb(179,179,179)" stroke-linejoin="round" d="M 12707,13858 L 12707,13708"/>
 <path fill="none" stroke="rgb(179,179,179)" stroke-linejoin="round" d="M 12707,13858 L 12707,13708"/>
 <path fill="none" stroke="rgb(179,179,179)" stroke-linejoin="round" d="M 14088,13858 L 14088,13708"/>
 <path fill="none" stroke="rgb(179,179,179)" stroke-linejoin="round" d="M 14088,13858 L 14088,13708"/>
 <path fill="none" stroke="rgb(179,179,179)" stroke-linejoin="round" d="M 15470,13858 L 15470,13708"/>
 <path fill="none" stroke="rgb(179,179,179)" stroke-linejoin="round" d="M 15470,13858 L 15470,13708"/>
 <path fill="none" stroke="rgb(179,179,179)" stroke-linejoin="round" d="M 16852,13858 L 16852,13708"/>
 <path fill="none" stroke="rgb(179,179,179)" stroke-linejoin="round" d="M 16852,13858 L 16852,13708"/>
 <path fill="none" stroke="rgb(179,179,179)" stroke-linejoin="round" d="M 18233,13858 L 18233,13708"/>
 <path fill="none" stroke="rgb(179,179,179)" stroke-linejoin="round" d="M 18233,13858 L 18233,13708"/>
 <path fill="none" stroke="rgb(179,179,179)" stroke-linejoin="round" d="M 19615,13858 L 19615,13708"/>
 <path fill="none" stroke="rgb(179,179,179)" stroke-linejoin="round" d="M 19615,13858 L 19615,13708"/>
 <path fill="none" stroke="rgb(179,179,179)" stroke-linejoin="round" d="M 20997,13858 L 20997,13708"/>
 <path fill="none" stroke="rgb(179,179,179)" stroke-linejoin="round" d="M 20997,13858 L 20997,13708"/>
 <path fill="none" stroke="rgb(179,179,179)" stroke-linejoin="round" d="M 22379,13858 L 22379,13708"/>
 <path fill="none" stroke="rgb(179,179,179)" stroke-linejoin="round" d="M 22379,13858 L 22379,13708"/>
 <path fill="none" stroke="rgb(179,179,179)" stroke-linejoin="round" d="M 23761,13858 L 23761,13708"/>
 <path fill="none" stroke="rgb(179,179,179)" stroke-linejoin="round" d="M 23761,13858 L 23761,13708"/>
 <path fill="none" stroke="rgb(179,179,179)" stroke-linejoin="round" d="M 3035,13708 L 23761,13708"/>
 <path fill="none" stroke="rgb(179,179,179)" stroke-linejoin="round" d="M 2885,13708 L 3035,13708"/>
 <path fill="none" stroke="rgb(179,179,179)" stroke-linejoin="round" d="M 2885,13708 L 3035,13708"/>
 <path fill="none" stroke="rgb(179,179,179)" stroke-linejoin="round" d="M 2885,12378 L 3035,12378"/>
 <path fill="none" stroke="rgb(179,179,179)" stroke-linejoin="round" d="M 2885,12378 L 3035,12378"/>
 <path fill="none" stroke="rgb(179,179,179)" stroke-linejoin="round" d="M 2885,11048 L 3035,11048"/>
 <path fill="none" stroke="rgb(179,179,179)" stroke-linejoin="round" d="M 2885,11048 L 3035,11048"/>
 <path fill="none" stroke="rgb(179,179,179)" stroke-linejoin="round" d="M 2885,9718 L 3035,9718"/>
 <path fill="none" stroke="rgb(179,179,179)" stroke-linejoin="round" d="M 2885,9718 L 3035,9718"/>
 <path fill="none" stroke="rgb(179,179,179)" stroke-linejoin="round" d="M 2885,8388 L 3035,8388"/>
 <path fill="none" stroke="rgb(179,179,179)" stroke-linejoin="round" d="M 2885,8388 L 3035,8388"/>
 <path fill="none" stroke="rgb(179,179,179)" stroke-linejoin="round" d="M 2885,7059 L 3035,7059"/>
 <path fill="none" stroke="rgb(179,179,179)" stroke-linejoin="round" d="M 2885,7059 L 3035,7059"/>
 <path fill="none" stroke="rgb(179,179,179)" stroke-linejoin="round" d="M 2885,5728 L 3035,5728"/>
 <path fill="none" stroke="rgb(179,179,179)" stroke-linejoin="round" d="M 2885,5728 L 3035,5728"/>
 <path fill="none" stroke="rgb(179,179,179)" stroke-linejoin="round" d="M 2885,4399 L 3035,4399"/>
 <path fill="none" stroke="rgb(179,179,179)" stroke-linejoin="round" d="M 2885,4399 L 3035,4399"/>
 <path fill="none" stroke="rgb(179,179,179)" stroke-linejoin="round" d="M 2885,3069 L 3035,3069"/>
 <path fill="none" stroke="rgb(179,179,179)" stroke-linejoin="round" d="M 2885,3069 L 3035,3069"/>
 <path fill="none" stroke="rgb(179,179,179)" stroke-linejoin="round" d="M 2885,1739 L 3035,1739"/>
 <path fill="none" stroke="rgb(179,179,179)" stroke-linejoin="round" d="M 2885,1739 L 3035,1739"/>
 <path fill="none" stroke="rgb(179,179,179)" stroke-linejoin="round" d="M 3035,13708 L 3035,1739"/>
 <path fill="rgb(0,69,134)" stroke="none" d="M 22517,13708 L 22793,13708 22793,4126 22517,4126 22517,13708 Z"/>
 <path fill="rgb(0,69,134)" stroke="none" d="M 21135,13708 L 21411,13708 21411,9898 21135,9898 21135,13708 Z"/>
 <path fill="rgb(0,69,134)" stroke="none" d="M 19753,13708 L 20030,13708 20030,12007 19753,12007 19753,13708 Z"/>
 <path fill="rgb(0,69,134)" stroke="none" d="M 18371,13708 L 18648,13708 18648,12955 18371,12955 18371,13708 Z"/>
 <path fill="rgb(0,69,134)" stroke="none" d="M 16990,13708 L 17266,13708 17266,13381 16990,13381 16990,13708 Z"/>
 <path fill="rgb(0,69,134)" stroke="none" d="M 15608,13708 L 15884,13708 15884,13533 15608,13533 15608,13708 Z"/>
 <path fill="rgb(0,69,134)" stroke="none" d="M 14226,13708 L 14502,13708 14502,13627 14226,13627 14226,13708 Z"/>
 <path fill="rgb(0,69,134)" stroke="none" d="M 12845,13708 L 13122,13708 13122,13668 12845,13668 12845,13708 Z"/>
 <path fill="rgb(0,69,134)" stroke="none" d="M 11463,13708 L 11740,13708 11740,13682 11463,13682 11463,13708 Z"/>
 <path fill="rgb(0,69,134)" stroke="none" d="M 10082,13708 L 10358,13708 10358,13693 10082,13693 10082,13708 Z"/>
 <path fill="rgb(0,69,134)" stroke="none" d="M 8700,13708 L 8976,13708 8976,13700 8700,13700 8700,13708 Z"/>
 <path fill="rgb(0,69,134)" stroke="none" d="M 7318,13708 L 7594,13708 7594,13703 7318,13703 7318,13708 Z"/>
 <path fill="rgb(0,69,134)" stroke="none" d="M 5936,13708 L 6213,13708 6213,13705 5936,13705 5936,13708 Z"/>
 <path fill="rgb(0,69,134)" stroke="none" d="M 4554,13708 L 4831,13708 4831,13705 4554,13705 4554,13708 Z"/>
 <path fill="rgb(0,69,134)" stroke="none" d="M 3173,13708 L 3449,13708 3449,13706 3173,13706 3173,13708 Z"/>
 <path fill="rgb(255,66,14)" stroke="none" d="M 22793,13708 L 23070,13708 23070,7147 22793,7147 22793,13708 Z"/>
 <path fill="rgb(255,66,14)" stroke="none" d="M 21411,13708 L 21688,13708 21688,9547 21411,9547 21411,13708 Z"/>
 <path fill="rgb(255,66,14)" stroke="none" d="M 20030,13708 L 20306,13708 20306,11443 20030,11443 20030,13708 Z"/>
 <path fill="rgb(255,66,14)" stroke="none" d="M 18648,13708 L 18924,13708 18924,12488 18648,12488 18648,13708 Z"/>
 <path fill="rgb(255,66,14)" stroke="none" d="M 17266,13708 L 17542,13708 17542,13144 17266,13144 17266,13708 Z"/>
 <path fill="rgb(255,66,14)" stroke="none" d="M 15884,13708 L 16161,13708 16161,13430 15884,13430 15884,13708 Z"/>
 <path fill="rgb(255,66,14)" stroke="none" d="M 14502,13708 L 14779,13708 14779,13574 14502,13574 14502,13708 Z"/>
 <path fill="rgb(255,66,14)" stroke="none" d="M 13122,13708 L 13398,13708 13398,13644 13122,13644 13122,13708 Z"/>
 <path fill="rgb(255,66,14)" stroke="none" d="M 11740,13708 L 12016,13708 12016,13674 11740,13674 11740,13708 Z"/>
 <path fill="rgb(255,66,14)" stroke="none" d="M 10358,13708 L 10634,13708 10634,13691 10358,13691 10358,13708 Z"/>
 <path fill="rgb(255,66,14)" stroke="none" d="M 8976,13708 L 9253,13708 9253,13698 8976,13698 8976,13708 Z"/>
 <path fill="rgb(255,66,14)" stroke="none" d="M 7594,13708 L 7871,13708 7871,13702 7594,13702 7594,13708 Z"/>
 <path fill="rgb(255,66,14)" stroke="none" d="M 6213,13708 L 6489,13708 6489,13704 6213,13704 6213,13708 Z"/>
 <path fill="rgb(255,66,14)" stroke="none" d="M 4831,13708 L 5107,13708 5107,13705 4831,13705 4831,13708 Z"/>
 <path fill="rgb(255,66,14)" stroke="none" d="M 3449,13708 L 3725,13708 3725,13706 3449,13706 3449,13708 Z"/>
 <path fill="rgb(255,211,32)" stroke="none" d="M 23070,13708 L 23346,13708 23346,2793 23070,2793 23070,13708 Z"/>
 <path fill="rgb(255,211,32)" stroke="none" d="M 21688,13708 L 21964,13708 21964,9204 21688,9204 21688,13708 Z"/>
 <path fill="rgb(255,211,32)" stroke="none" d="M 20306,13708 L 20582,13708 20582,12254 20306,12254 20306,13708 Z"/>
 <path fill="rgb(255,211,32)" stroke="none" d="M 18924,13708 L 19201,13708 19201,12748 18924,12748 18924,13708 Z"/>
 <path fill="rgb(255,211,32)" stroke="none" d="M 17542,13708 L 17819,13708 17819,13125 17542,13125 17542,13708 Z"/>
 <path fill="rgb(255,211,32)" stroke="none" d="M 16161,13708 L 16437,13708 16437,13424 16161,13424 16161,13708 Z"/>
 <path fill="rgb(255,211,32)" stroke="none" d="M 14779,13708 L 15055,13708 15055,13569 14779,13569 14779,13708 Z"/>
 <path fill="rgb(255,211,32)" stroke="none" d="M 13398,13708 L 13674,13708 13674,13640 13398,13640 13398,13708 Z"/>
 <path fill="rgb(255,211,32)" stroke="none" d="M 12016,13708 L 12293,13708 12293,13676 12016,13676 12016,13708 Z"/>
 <path fill="rgb(255,211,32)" stroke="none" d="M 10634,13708 L 10911,13708 10911,13691 10634,13691 10634,13708 Z"/>
 <path fill="rgb(255,211,32)" stroke="none" d="M 9253,13708 L 9529,13708 9529,13698 9253,13698 9253,13708 Z"/>
 <path fill="rgb(255,211,32)" stroke="none" d="M 7871,13708 L 8147,13708 8147,13702 7871,13702 7871,13708 Z"/>
 <path fill="rgb(255,211,32)" stroke="none" d="M 6489,13708 L 6765,13708 6765,13704 6489,13704 6489,13708 Z"/>
 <path fill="rgb(255,211,32)" stroke="none" d="M 5107,13708 L 5384,13708 5384,13706 5107,13706 5107,13708 Z"/>
 <path fill="rgb(255,211,32)" stroke="none" d="M 3725,13708 L 4002,13708 4002,13707 3725,13707 3725,13708 Z"/>
 <path fill="rgb(87,157,28)" stroke="none" d="M 23346,13708 L 23622,13708 23622,6620 23346,6620 23346,13708 Z"/>
 <path fill="rgb(87,157,28)" stroke="none" d="M 21964,13708 L 22241,13708 22241,9165 21964,9165 21964,13708 Z"/>
 <path fill="rgb(87,157,28)" stroke="none" d="M 20582,13708 L 20859,13708 20859,11318 20582,11318 20582,13708 Z"/>
 <path fill="rgb(87,157,28)" stroke="none" d="M 19201,13708 L 19477,13708 19477,12515 19201,12515 19201,13708 Z"/>
 <path fill="rgb(87,157,28)" stroke="none" d="M 17819,13708 L 18095,13708 18095,13119 17819,13119 17819,13708 Z"/>
 <path fill="rgb(87,157,28)" stroke="none" d="M 16437,13708 L 16713,13708 16713,13421 16437,13421 16437,13708 Z"/>
 <path fill="rgb(87,157,28)" stroke="none" d="M 15055,13708 L 15332,13708 15332,13565 15055,13565 15055,13708 Z"/>
 <path fill="rgb(87,157,28)" stroke="none" d="M 13674,13708 L 13950,13708 13950,13634 13674,13634 13674,13708 Z"/>
 <path fill="rgb(87,157,28)" stroke="none" d="M 12293,13708 L 12569,13708 12569,13673 12293,13673 12293,13708 Z"/>
 <path fill="rgb(87,157,28)" stroke="none" d="M 10911,13708 L 11187,13708 11187,13691 10911,13691 10911,13708 Z"/>
 <path fill="rgb(87,157,28)" stroke="none" d="M 9529,13708 L 9805,13708 9805,13699 9529,13699 9529,13708 Z"/>
 <path fill="rgb(87,157,28)" stroke="none" d="M 8147,13708 L 8424,13708 8424,13701 8147,13701 8147,13708 Z"/>
 <path fill="rgb(87,157,28)" stroke="none" d="M 6765,13708 L 7042,13708 7042,13703 6765,13703 6765,13708 Z"/>
 <path fill="rgb(87,157,28)" stroke="none" d="M 5384,13708 L 5660,13708 5660,13705 5384,13705 5384,13708 Z"/>
 <path fill="rgb(87,157,28)" stroke="none" d="M 4002,13708 L 4278,13708 4278,13706 4002,13706 4002,13708 Z"/>
 <text class="TextShape"><tspan class="TextParagraph" font-family="Liberation Sans, sans-serif" font-size="353px" font-weight="400"><tspan class="TextPosition" x="3540" y="14276"><tspan fill="rgb(0,0,0)" stroke="none">32</tspan></tspan></tspan></text>
 <text class="TextShape"><tspan class="TextParagraph" font-family="Liberation Sans, sans-serif" font-size="353px" font-weight="400"><tspan class="TextPosition" x="4922" y="14276"><tspan fill="rgb(0,0,0)" stroke="none">64</tspan></tspan></tspan></text>
 <text class="TextShape"><tspan class="TextParagraph" font-family="Liberation Sans, sans-serif" font-size="353px" font-weight="400"><tspan class="TextPosition" x="6211" y="14276"><tspan fill="rgb(0,0,0)" stroke="none">128</tspan></tspan></tspan></text>
 <text class="TextShape"><tspan class="TextParagraph" font-family="Liberation Sans, sans-serif" font-size="353px" font-weight="400"><tspan class="TextPosition" x="7593" y="14276"><tspan fill="rgb(0,0,0)" stroke="none">256</tspan></tspan></tspan></text>
 <text class="TextShape"><tspan class="TextParagraph" font-family="Liberation Sans, sans-serif" font-size="353px" font-weight="400"><tspan class="TextPosition" x="8975" y="14276"><tspan fill="rgb(0,0,0)" stroke="none">512</tspan></tspan></tspan></text>
 <text class="TextShape"><tspan class="TextParagraph" font-family="Liberation Sans, sans-serif" font-size="353px" font-weight="400"><tspan class="TextPosition" x="10210" y="14276"><tspan fill="rgb(0,0,0)" stroke="none">1,024</tspan></tspan></tspan></text>
 <text class="TextShape"><tspan class="TextParagraph" font-family="Liberation Sans, sans-serif" font-size="353px" font-weight="400"><tspan class="TextPosition" x="11592" y="14276"><tspan fill="rgb(0,0,0)" stroke="none">2,048</tspan></tspan></tspan></text>
 <text class="TextShape"><tspan class="TextParagraph" font-family="Liberation Sans, sans-serif" font-size="353px" font-weight="400"><tspan class="TextPosition" x="12974" y="14276"><tspan fill="rgb(0,0,0)" stroke="none">4,096</tspan></tspan></tspan></text>
 <text class="TextShape"><tspan class="TextParagraph" font-family="Liberation Sans, sans-serif" font-size="353px" font-weight="400"><tspan class="TextPosition" x="14356" y="14276"><tspan fill="rgb(0,0,0)" stroke="none">8,192</tspan></tspan></tspan></text>
 <text class="TextShape"><tspan class="TextParagraph" font-family="Liberation Sans, sans-serif" font-size="353px" font-weight="400"><tspan class="TextPosition" x="15646" y="14276"><tspan fill="rgb(0,0,0)" stroke="none">16,384</tspan></tspan></tspan></text>
 <text class="TextShape"><tspan class="TextParagraph" font-family="Liberation Sans, sans-serif" font-size="353px" font-weight="400"><tspan class="TextPosition" x="17027" y="14276"><tspan fill="rgb(0,0,0)" stroke="none">32,768</tspan></tspan></tspan></text>
 <text class="TextShape"><tspan class="TextParagraph" font-family="Liberation Sans, sans-serif" font-size="353px" font-weight="400"><tspan class="TextPosition" x="18409" y="14276"><tspan fill="rgb(0,0,0)" stroke="none">65,536</tspan></tspan></tspan></text>
 <text class="TextShape"><tspan class="TextParagraph" font-family="Liberation Sans, sans-serif" font-size="353px" font-weight="400"><tspan class="TextPosition" x="19698" y="14276"><tspan fill="rgb(0,0,0)" stroke="none">131,072</tspan></tspan></tspan></text>
 <text class="TextShape"><tspan class="TextParagraph" font-family="Liberation Sans, sans-serif" font-size="353px" font-weight="400"><tspan class="TextPosition" x="21080" y="14276"><tspan fill="rgb(0,0,0)" stroke="none">262,144</tspan></tspan></tspan></text>
 <text class="TextShape"><tspan class="TextParagraph" font-family="Liberation Sans, sans-serif" font-size="353px" font-weight="400"><tspan class="TextPosition" x="22462" y="14276"><tspan fill="rgb(0,0,0)" stroke="none">524,288</tspan></tspan></tspan></text>
 <text class="TextShape"><tspan class="TextParagraph" font-family="Liberation Sans, sans-serif" font-size="353px" font-weight="400"><tspan class="TextPosition" x="2600" y="13829"><tspan fill="rgb(0,0,0)" stroke="none">0</tspan></tspan></tspan></text>
 <text class="TextShape"><tspan class="TextParagraph" font-family="Liberation Sans, sans-serif" font-size="353px" font-weight="400"><tspan class="TextPosition" x="1753" y="12499"><tspan fill="rgb(0,0,0)" stroke="none">20,000</tspan></tspan></tspan></text>
 <text class="TextShape"><tspan class="TextParagraph" font-family="Liberation Sans, sans-serif" font-size="353px" font-weight="400"><tspan class="TextPosition" x="1753" y="11169"><tspan fill="rgb(0,0,0)" stroke="none">40,000</tspan></tspan></tspan></text>
 <text class="TextShape"><tspan class="TextParagraph" font-family="Liberation Sans, sans-serif" font-size="353px" font-weight="400"><tspan class="TextPosition" x="1753" y="9839"><tspan fill="rgb(0,0,0)" stroke="none">60,000</tspan></tspan></tspan></text>
 <text class="TextShape"><tspan class="TextParagraph" font-family="Liberation Sans, sans-serif" font-size="353px" font-weight="400"><tspan class="TextPosition" x="1753" y="8509"><tspan fill="rgb(0,0,0)" stroke="none">80,000</tspan></tspan></tspan></text>
 <text class="TextShape"><tspan class="TextParagraph" font-family="Liberation Sans, sans-serif" font-size="353px" font-weight="400"><tspan class="TextPosition" x="1568" y="7179"><tspan fill="rgb(0,0,0)" stroke="none">100,000</tspan></tspan></tspan></text>
 <text class="TextShape"><tspan class="TextParagraph" font-family="Liberation Sans, sans-serif" font-size="353px" font-weight="400"><tspan class="TextPosition" x="1568" y="5848"><tspan fill="rgb(0,0,0)" stroke="none">120,000</tspan></tspan></tspan></text>
 <text class="TextShape"><tspan class="TextParagraph" font-family="Liberation Sans, sans-serif" font-size="353px" font-weight="400"><tspan class="TextPosition" x="1568" y="4519"><tspan fill="rgb(0,0,0)" stroke="none">140,000</tspan></tspan></tspan></text>
 <text class="TextShape"><tspan class="TextParagraph" font-family="Liberation Sans, sans-serif" font-size="353px" font-weight="400"><tspan class="TextPosition" x="1568" y="3189"><tspan fill="rgb(0,0,0)" stroke="none">160,000</tspan></tspan></tspan></text>
 <text class="TextShape"><tspan class="TextParagraph" font-family="Liberation Sans, sans-serif" font-size="353px" font-weight="400"><tspan class="TextPosition" x="1568" y="1859"><tspan fill="rgb(0,0,0)" stroke="none">180,000</tspan></tspan></tspan></text>
 <text class="TextShape"><tspan class="TextParagraph" font-family="Liberation Sans, sans-serif" font-size="459px" font-weight="400"><tspan class="TextPosition" x="12430" y="984"><tspan fill="rgb(0,0,0)" stroke="none">Random writes</tspan></tspan></tspan></text>
 <path fill="rgb(0,69,134)" stroke="none" d="M 24539,7183 L 24433,7183 24433,6972 24644,6972 24644,7183 24539,7183 Z"/>
 <path fill="rgb(255,66,14)" stroke="none" d="M 24539,7681 L 24433,7681 24433,7470 24644,7470 24644,7681 24539,7681 Z"/>
 <path fill="rgb(255,211,32)" stroke="none" d="M 24539,8178 L 24433,8178 24433,7967 24644,7967 24644,8178 24539,8178 Z"/>
 <path fill="rgb(87,157,28)" stroke="none" d="M 24539,8676 L 24433,8676 24433,8465 24644,8465 24644,8676 24539,8676 Z"/>
 <text class="TextShape"><tspan class="TextParagraph" font-family="Liberation Sans, sans-serif" font-size="353px" font-weight="400"><tspan class="TextPosition" x="24744" y="7197"><tspan fill="rgb(0,0,0)" stroke="none">boxed random</tspan></tspan></tspan></text>
 <text class="TextShape"><tspan class="TextParagraph" font-family="Liberation Sans, sans-serif" font-size="353px" font-weight="400"><tspan class="TextPosition" x="24744" y="7695"><tspan fill="rgb(0,0,0)" stroke="none">flat random</tspan></tspan></tspan></text>
 <text class="TextShape"><tspan class="TextParagraph" font-family="Liberation Sans, sans-serif" font-size="353px" font-weight="400"><tspan class="TextPosition" x="24744" y="8192"><tspan fill="rgb(0,0,0)" stroke="none">padded random</tspan></tspan></tspan></text>
 <text class="TextShape"><tspan class="TextParagraph" font-family="Liberation Sans, sans-serif" font-size="353px" font-weight="400"><tspan class="TextPosition" x="24744" y="8690"><tspan fill="rgb(0,0,0)" stroke="none">remapped random</tspan></tspan></tspan></text>
 <text class="TextShape"><tspan class="TextParagraph" font-family="Liberation Sans, sans-serif" font-size="318px" font-weight="400"><tspan class="TextPosition" x="11804" y="15056"><tspan fill="rgb(0,0,0)" stroke="none">array length</tspan></tspan></tspan></text>
 <text class="TextShape" transform="rotate(-90 837 8610)"><tspan class="TextParagraph" font-family="Liberation Sans, sans-serif" font-size="318px" font-weight="400"><tspan class="TextPosition" x="837" y="8610"><tspan fill="rgb(0,0,0)" stroke="none">time (ms)</tspan></tspan></tspan></text>
</svg>