<?xml version="1.0" encoding="UTF-8"?>
<!DOCTYPE svg PUBLIC "-//W3C//DTD SVG 1.1//EN" "http://www.w3.org/Graphics/SVG/1.1/DTD/svg11.dtd">
<svg width="277mm" height="156mm" viewBox="0 0 27700 15600" version="1.1" xmlns="http://www.w3.org/2000/svg" xmlns:xlink="http://www.w3.org/1999/xlink" stroke-width="28.222" stroke-linejoin="round" xml:space="preserve">
 <path fill="rgb(255,255,255)" stroke="none" d="M 13842,15571 L 0,15571 0,0 27683,0 27683,15571 13842,15571 Z"/>
 <path fill="none" stroke="rgb(179,179,179)" stroke-linejoin="round" d="M 12918,13632 L 2847,13632 2847,1736 22988,1736 22988,13632 12918,13632 Z"/>
 <path fill="none" stroke="rgb(179,179,179)" stroke-linejoin="round" d="M 22988,13631 L 2847,13631"/>
 <path fill="none" stroke="rgb(179,179,179)" stroke-linejoin="round" d="M 22988,11648 L 2847,11648"/>
 <path fill="none" stroke="rgb(179,179,179)" stroke-linejoin="round" d="M 22988,9665 L 2847,9665"/>
 <path fill="none" stroke="rgb(179,179,179)" stroke-linejoin="round" d="M 22988,7683 L 2847,7683"/>
 <path fill="none" stroke="rgb(179,179,179)" stroke-linejoin="round" d="M 22988,5700 L 2847,5700"/>
 <path fill="none" stroke="rgb(179,179,179)" stroke-linejoin="round" d="M 22988,3717 L 2847,3717"/>
 <path fill="none" stroke="rgb(179,179,179)" stroke-linejoin="round" d="M 22988,1735 L 2847,1735"/>
 <path fill="none" stroke="rgb(179,179,179)" stroke-linejoin="round" d="M 2847,13781 L 2847,13631"/>
 <path fill="none" stroke="rgb(179,179,179)" stroke-linejoin="round" d="M 2847,13781 L 2847,13631"/>
 <path fill="none" stroke="rgb(179,179,179)" stroke-linejoin="round" d="M 4189,13781 L 4189,13631"/>
 <path fill="none" stroke="rgb(179,179,179)" stroke-linejoin="round" d="M 4189,13781 L 4189,13631"/>
 <path fill="none" stroke="rgb(179,179,179)" stroke-linejoin="round" d="M 5532,13781 L 5532,13631"/>
 <path fill="none" stroke="rgb(179,179,179)" stroke-linejoin="round" d="M 5532,13781 L 5532,13631"/>
 <path fill="none" stroke="rgb(179,179,179)" stroke-linejoin="round" d="M 6875,13781 L 6875,13631"/>
 <path fill="none" stroke="rgb(179,179,179)" stroke-linejoin="round" d="M 6875,13781 L 6875,13631"/>
 <path fill="none" stroke="rgb(179,179,179)" stroke-linejoin="round" d="M 8218,13781 L 8218,13631"/>
 <path fill="none" stroke="rgb(179,179,179)" stroke-linejoin="round" d="M 8218,13781 L 8218,13631"/>
 <path fill="none" stroke="rgb(179,179,179)" stroke-linejoin="round" d="M 9561,13781 L 9561,13631"/>
 <path fill="none" stroke="rgb(179,179,179)" stroke-linejoin="round" d="M 9561,13781 L 9561,13631"/>
 <path fill="none" stroke="rgb(179,179,179)" stroke-linejoin="round" d="M 10903,13781 L 10903,13631"/>
 <path fill="none" stroke="rgb(179,179,179)" stroke-linejoin="round" d="M 10903,13781 L 10903,13631"/>
 <path fill="none" stroke="rgb(179,179,179)" stroke-linejoin="round" d="M 12246,13781 L 12246,13631"/>
 <path fill="none" stroke="rgb(179,179,179)" stroke-linejoin="round" d="M 12246,13781 L 12246,13631"/>
 <path fill="none" stroke="rgb(179,179,179)" stroke-linejoin="round" d="M 13589,13781 L 13589,13631"/>
 <path fill="none" stroke="rgb(179,179,179)" stroke-linejoin="round" d="M 13589,13781 L 13589,13631"/>
 <path fill="none" stroke="rgb(179,179,179)" stroke-linejoin="round" d="M 14931,13781 L 14931,13631"/>
 <path fill="none" stroke="rgb(179,179,179)" stroke-linejoin="round" d="M 14931,13781 L 14931,13631"/>
 <path fill="none" stroke="rgb(179,179,179)" stroke-linejoin="round" d="M 16274,13781 L 16274,13631"/>
 <path fill="none" stroke="rgb(179,179,179)" stroke-linejoin="round" d="M 16274,13781 L 16274,13631"/>
 <path fill="none" stroke="rgb(179,179,179)" stroke-linejoin="round" d="M 17616,13781 L 17616,13631"/>
 <path fill="none" stroke="rgb(179,179,179)" stroke-linejoin="round" d="M 17616,13781 L 17616,13631"/>
 <path fill="none" stroke="rgb(179,179,179)" stroke-linejoin="round" d="M 18959,13781 L 18959,13631"/>
 <path fill="none" stroke="rgb(179,179,179)" stroke-linejoin="round" d="M 18959,13781 L 18959,13631"/>
 <path fill="none" stroke="rgb(179,179,179)" stroke-linejoin="round" d="M 20302,13781 L 20302,13631"/>
 <path fill="none" stroke="rgb(179,179,179)" stroke-linejoin="round" d="M 20302,13781 L 20302,13631"/>
 <path fill="none" stroke="rgb(179,179,179)" stroke-linejoin="round" d="M 21645,13781 L 21645,13631"/>
 <path fill="none" stroke="rgb(179,179,179)" stroke-linejoin="round" d="M 21645,13781 L 21645,13631"/>
 <path fill="none" stroke="rgb(179,179,179)" stroke-linejoin="round" d="M 22988,13781 L 22988,13631"/>
 <path fill="none" stroke="rgb(179,179,179)" stroke-linejoin="round" d="M 22988,13781 L 22988,13631"/>
 <path fill="none" stroke="rgb(179,179,179)" stroke-linejoin="round" d="M 2847,13631 L 22988,13631"/>
 <path fill="none" stroke="rgb(179,179,179)" stroke-linejoin="round" d="M 2697,13631 L 2847,13631"/>
 <path fill="none" stroke="rgb(179,179,179)" stroke-linejoin="round" d="M 2697,13631 L 2847,13631"/>
 <path fill="none" stroke="rgb(179,179,179)" stroke-linejoin="round" d="M 2697,11648 L 2847,11648"/>
 <path fill="none" stroke="rgb(179,179,179)" stroke-linejoin="round" d="M 2697,11648 L 2847,11648"/>
 <path fill="none" stroke="rgb(179,179,179)" stroke-linejoin="round" d="M 2697,9665 L 2847,9665"/>
 <path fill="none" stroke="rgb(179,179,179)" stroke-linejoin="round" d="M 2697,9665 L 2847,9665"/>
 <path fill="none" stroke="rgb(179,179,179)" stroke-linejoin="round" d="M 2697,7683 L 2847,7683"/>
 <path fill="none" stroke="rgb(179,179,179)" stroke-linejoin="round" d="M 2697,7683 L 2847,7683"/>
 <path fill="none" stroke="rgb(179,179,179)" stroke-linejoin="round" d="M 2697,5700 L 2847,5700"/>
 <path fill="none" stroke="rgb(179,179,179)" stroke-linejoin="round" d="M 2697,5700 L 2847,5700"/>
 <path fill="none" stroke="rgb(179,179,179)" stroke-linejoin="round" d="M 2697,3717 L 2847,3717"/>
 <path fill="none" stroke="rgb(179,179,179)" stroke-linejoin="round" d="M 2697,3717 L 2847,3717"/>
 <path fill="none" stroke="rgb(179,179,179)" stroke-linejoin="round" d="M 2697,1735 L 2847,1735"/>
 <path fill="none" stroke="rgb(179,179,179)" stroke-linejoin="round" d="M 2697,1735 L 2847,1735"/>
 <path fill="none" stroke="rgb(179,179,179)" stroke-linejoin="round" d="M 2847,13631 L 2847,1735"/>
 <path fill="rgb(0,69,134)" stroke="none" d="M 21779,13631 L 22048,13631 22048,9197 21779,9197 21779,13631 Z"/>
 <path fill="rgb(0,69,134)" stroke="none" d="M 20436,13631 L 20705,13631 20705,11319 20436,11319 20436,13631 Z"/>
 <path fill="rgb(0,69,134)" stroke="none" d="M 19093,13631 L 19362,13631 19362,12236 19093,12236 19093,13631 Z"/>
 <path fill="rgb(0,69,134)" stroke="none" d="M 17751,13631 L 18019,13631 18019,12767 17751,12767 17751,13631 Z"/>
 <path fill="rgb(0,69,134)" stroke="none" d="M 16408,13631 L 16676,13631 16676,12909 16408,12909 16408,13631 Z"/>
 <path fill="rgb(0,69,134)" stroke="none" d="M 15065,13631 L 15334,13631 15334,13101 15065,13101 15065,13631 Z"/>
 <path fill="rgb(0,69,134)" stroke="none" d="M 13723,13631 L 13991,13631 13991,13295 13723,13295 13723,13631 Z"/>
 <path fill="rgb(0,69,134)" stroke="none" d="M 12380,13631 L 12649,13631 12649,13483 12380,13483 12380,13631 Z"/>
 <path fill="rgb(0,69,134)" stroke="none" d="M 11038,13631 L 11306,13631 11306,13574 11038,13574 11038,13631 Z"/>
 <path fill="rgb(0,69,134)" stroke="none" d="M 9695,13631 L 9963,13631 9963,13600 9695,13600 9695,13631 Z"/>
 <path fill="rgb(0,69,134)" stroke="none" d="M 8352,13631 L 8621,13631 8621,13610 8352,13610 8352,13631 Z"/>
 <path fill="rgb(0,69,134)" stroke="none" d="M 7009,13631 L 7278,13631 7278,13616 7009,13616 7009,13631 Z"/>
 <path fill="rgb(0,69,134)" stroke="none" d="M 5666,13631 L 5935,13631 5935,13623 5666,13623 5666,13631 Z"/>
 <path fill="rgb(0,69,134)" stroke="none" d="M 4324,13631 L 4592,13631 4592,13627 4324,13627 4324,13631 Z"/>
 <path fill="rgb(0,69,134)" stroke="none" d="M 2981,13631 L 3249,13631 3249,13628 2981,13628 2981,13631 Z"/>
 <path fill="rgb(255,66,14)" stroke="none" d="M 22048,13631 L 22316,13631 22316,5065 22048,5065 22048,13631 Z"/>
 <path fill="rgb(255,66,14)" stroke="none" d="M 20705,13631 L 20973,13631 20973,7580 20705,7580 20705,13631 Z"/>
 <path fill="rgb(255,66,14)" stroke="none" d="M 19362,13631 L 19631,13631 19631,10491 19362,10491 19362,13631 Z"/>
 <path fill="rgb(255,66,14)" stroke="none" d="M 18019,13631 L 18288,13631 18288,12021 18019,12021 18019,13631 Z"/>
 <path fill="rgb(255,66,14)" stroke="none" d="M 16676,13631 L 16945,13631 16945,12810 16676,12810 16676,13631 Z"/>
 <path fill="rgb(255,66,14)" stroke="none" d="M 15334,13631 L 15602,13631 15602,13249 15334,13249 15334,13631 Z"/>
 <path fill="rgb(255,66,14)" stroke="none" d="M 13991,13631 L 14259,13631 14259,13457 13991,13457 13991,13631 Z"/>
 <path fill="rgb(255,66,14)" stroke="none" d="M 12649,13631 L 12918,13631 12918,13546 12649,13546 12649,13631 Z"/>
 <path fill="rgb(255,66,14)" stroke="none" d="M 11306,13631 L 11575,13631 11575,13586 11306,13586 11306,13631 Z"/>
 <path fill="rgb(255,66,14)" stroke="none" d="M 9963,13631 L 10232,13631 10232,13600 9963,13600 9963,13631 Z"/>
 <path fill="rgb(255,66,14)" stroke="none" d="M 8621,13631 L 8889,13631 8889,13613 8621,13613 8621,13631 Z"/>
 <path fill="rgb(255,66,14)" stroke="none" d="M 7278,13631 L 7546,13631 7546,13623 7278,13623 7278,13631 Z"/>
 <path fill="rgb(255,66,14)" stroke="none" d="M 5935,13631 L 6204,13631 6204,13624 5935,13624 5935,13631 Z"/>
 <path fill="rgb(255,66,14)" stroke="none" d="M 4592,13631 L 4861,13631 4861,13627 4592,13627 4592,13631 Z"/>
 <path fill="rgb(255,66,14)" stroke="none" d="M 3249,13631 L 3518,13631 3518,13628 3249,13628 3249,13631 Z"/>
 <path fill="rgb(255,211,32)" stroke="none" d="M 22316,13631 L 22585,13631 22585,3703 22316,3703 22316,13631 Z"/>
 <path fill="rgb(255,211,32)" stroke="none" d="M 20973,13631 L 21242,13631 21242,8835 20973,8835 20973,13631 Z"/>
 <path fill="rgb(255,211,32)" stroke="none" d="M 19631,13631 L 19899,13631 19899,11511 19631,11511 19631,13631 Z"/>
 <path fill="rgb(255,211,32)" stroke="none" d="M 18288,13631 L 18556,13631 18556,12428 18288,12428 18288,13631 Z"/>
 <path fill="rgb(255,211,32)" stroke="none" d="M 16945,13631 L 17213,13631 17213,13014 16945,13014 16945,13631 Z"/>
 <path fill="rgb(255,211,32)" stroke="none" d="M 15602,13631 L 15871,13631 15871,13270 15602,13270 15602,13631 Z"/>
 <path fill="rgb(255,211,32)" stroke="none" d="M 14259,13631 L 14528,13631 14528,13472 14259,13472 14259,13631 Z"/>
 <path fill="rgb(255,211,32)" stroke="none" d="M 12918,13631 L 13186,13631 13186,13550 12918,13550 12918,13631 Z"/>
 <path fill="rgb(255,211,32)" stroke="none" d="M 11575,13631 L 11843,13631 11843,13597 11575,13597 11575,13631 Z"/>
 <path fill="rgb(255,211,32)" stroke="none" d="M 10232,13631 L 10500,13631 10500,13613 10232,13613 10232,13631 Z"/>
 <path fill="rgb(255,211,32)" stroke="none" d="M 8889,13631 L 9158,13631 9158,13623 8889,13623 8889,13631 Z"/>
 <path fill="rgb(255,211,32)" stroke="none" d="M 7546,13631 L 7815,13631 7815,13627 7546,13627 7546,13631 Z"/>
 <path fill="rgb(255,211,32)" stroke="none" d="M 6204,13631 L 6472,13631 6472,13628 6204,13628 6204,13631 Z"/>
 <path fill="rgb(255,211,32)" stroke="none" d="M 4861,13631 L 5129,13631 5129,13629 4861,13629 4861,13631 Z"/>
 <path fill="rgb(255,211,32)" stroke="none" d="M 3518,13631 L 3786,13631 3786,13630 3518,13630 3518,13631 Z"/>
 <path fill="rgb(87,157,28)" stroke="none" d="M 22585,13631 L 22853,13631 22853,4259 22585,4259 22585,13631 Z"/>
 <path fill="rgb(87,157,28)" stroke="none" d="M 21242,13631 L 21510,13631 21510,8809 21242,8809 21242,13631 Z"/>
 <path fill="rgb(87,157,28)" stroke="none" d="M 19899,13631 L 20168,13631 20168,11257 19899,11257 19899,13631 Z"/>
 <path fill="rgb(87,157,28)" stroke="none" d="M 18556,13631 L 18825,13631 18825,12440 18556,12440 18556,13631 Z"/>
 <path fill="rgb(87,157,28)" stroke="none" d="M 17213,13631 L 17482,13631 17482,13021 17213,13021 17213,13631 Z"/>
 <path fill="rgb(87,157,28)" stroke="none" d="M 15871,13631 L 16139,13631 16139,13384 15871,13384 15871,13631 Z"/>
 <path fill="rgb(87,157,28)" stroke="none" d="M 14528,13631 L 14796,13631 14796,13508 14528,13508 14528,13631 Z"/>
 <path fill="rgb(87,157,28)" stroke="none" d="M 13186,13631 L 13455,13631 13455,13571 13186,13571 13186,13631 Z"/>
 <path fill="rgb(87,157,28)" stroke="none" d="M 11843,13631 L 12112,13631 12112,13599 11843,13599 11843,13631 Z"/>
 <path fill="rgb(87,157,28)" stroke="none" d="M 10500,13631 L 10769,13631 10769,13602 10500,13602 10500,13631 Z"/>
 <path fill="rgb(87,157,28)" stroke="none" d="M 9158,13631 L 9426,13631 9426,13615 9158,13615 9158,13631 Z"/>
 <path fill="rgb(87,157,28)" stroke="none" d="M 7815,13631 L 8083,13631 8083,13626 7815,13626 7815,13631 Z"/>
 <path fill="rgb(87,157,28)" stroke="none" d="M 6472,13631 L 6741,13631 6741,13628 6472,13628 6472,13631 Z"/>
 <path fill="rgb(87,157,28)" stroke="none" d="M 5129,13631 L 5398,13631 5398,13629 5129,13629 5129,13631 Z"/>
 <path fill="rgb(87,157,28)" stroke="none" d="M 3786,13631 L 4055,13631 4055,13629 3786,13629 3786,13631 Z"/>
 <text class="TextShape"><tspan class="TextParagraph" font-family="Liberation Sans, sans-serif" font-size="353px" font-weight="400"><tspan class="TextPosition" x="3333" y="14199"><tspan fill="rgb(0,0,0)" stroke="none">32</tspan></tspan></tspan></text>
 <text class="TextShape"><tspan class="TextParagraph" font-family="Liberation Sans, sans-serif" font-size="353px" font-weight="400"><tspan class="TextPosition" x="4676" y="14199"><tspan fill="rgb(0,0,0)" stroke="none">64</tspan></tspan></tspan></text>
 <text class="TextShape"><tspan class="TextParagraph" font-family="Liberation Sans, sans-serif" font-size="353px" font-weight="400"><tspan class="TextPosition" x="5926" y="14199"><tspan fill="rgb(0,0,0)" stroke="none">128</tspan></tspan></tspan></text>
 <text class="TextShape"><tspan class="TextParagraph" font-family="Liberation Sans, sans-serif" font-size="353px" font-weight="400"><tspan class="TextPosition" x="7268" y="14199"><tspan fill="rgb(0,0,0)" stroke="none">256</tspan></tspan></tspan></text>
 <text class="TextShape"><tspan class="TextParagraph" font-family="Liberation Sans, sans-serif" font-size="353px" font-weight="400"><tspan class="TextPosition" x="8611" y="14199"><tspan fill="rgb(0,0,0)" stroke="none">512</tspan></tspan></tspan></text>
 <text class="TextShape"><tspan class="TextParagraph" font-family="Liberation Sans, sans-serif" font-size="353px" font-weight="400"><tspan class="TextPosition" x="9808" y="14199"><tspan fill="rgb(0,0,0)" stroke="none">1,024</tspan></tspan></tspan></text>
 <text class="TextShape"><tspan class="TextParagraph" font-family="Liberation Sans, sans-serif" font-size="353px" font-weight="400"><tspan class="TextPosition" x="11151" y="14199"><tspan fill="rgb(0,0,0)" stroke="none">2,048</tspan></tspan></tspan></text>
 <text class="TextShape"><tspan class="TextParagraph" font-family="Liberation Sans, sans-serif" font-size="353px" font-weight="400"><tspan class="TextPosition" x="12494" y="14199"><tspan fill="rgb(0,0,0)" stroke="none">4,096</tspan></tspan></tspan></text>
 <text class="TextShape"><tspan class="TextParagraph" font-family="Liberation Sans, sans-serif" font-size="353px" font-weight="400"><tspan class="TextPosition" x="13836" y="14199"><tspan fill="rgb(0,0,0)" stroke="none">8,192</tspan></tspan></tspan></text>
 <text class="TextShape"><tspan class="TextParagraph" font-family="Liberation Sans, sans-serif" font-size="353px" font-weight="400"><tspan class="TextPosition" x="15087" y="14199"><tspan fill="rgb(0,0,0)" stroke="none">16,384</tspan></tspan></tspan></text>
 <text class="TextShape"><tspan class="TextParagraph" font-family="Liberation Sans, sans-serif" font-size="353px" font-weight="400"><tspan class="TextPosition" x="16430" y="14199"><tspan fill="rgb(0,0,0)" stroke="none">32,768</tspan></tspan></tspan></text>
 <text class="TextShape"><tspan class="TextParagraph" font-family="Liberation Sans, sans-serif" font-size="353px" font-weight="400"><tspan class="TextPosition" x="17773" y="14199"><tspan fill="rgb(0,0,0)" stroke="none">65,536</tspan></tspan></tspan></text>
 <text class="TextShape"><tspan class="TextParagraph" font-family="Liberation Sans, sans-serif" font-size="353px" font-weight="400"><tspan class="TextPosition" x="19023" y="14199"><tspan fill="rgb(0,0,0)" stroke="none">131,072</tspan></tspan></tspan></text>
 <text class="TextShape"><tspan class="TextParagraph" font-family="Liberation Sans, sans-serif" font-size="353px" font-weight="400"><tspan class="TextPosition" x="20365" y="14199"><tspan fill="rgb(0,0,0)" stroke="none">262,144</tspan></tspan></tspan></text>
 <text class="TextShape"><tspan class="TextParagraph" font-family="Liberation Sans, sans-serif" font-size="353px" font-weight="400"><tspan class="TextPosition" x="21708" y="14199"><tspan fill="rgb(0,0,0)" stroke="none">524,288</tspan></tspan></tspan></text>
 <text class="TextShape"><tspan class="TextParagraph" font-family="Liberation Sans, sans-serif" font-size="353px" font-weight="400"><tspan class="TextPosition" x="2412" y="13752"><tspan fill="rgb(0,0,0)" stroke="none">0</tspan></tspan></tspan></text>
 <text class="TextShape"><tspan class="TextParagraph" font-family="Liberation Sans, sans-serif" font-size="353px" font-weight="400"><tspan class="TextPosition" x="1750" y="11769"><tspan fill="rgb(0,0,0)" stroke="none">5,000</tspan></tspan></tspan></text>
 <text class="TextShape"><tspan class="TextParagraph" font-family="Liberation Sans, sans-serif" font-size="353px" font-weight="400"><tspan class="TextPosition" x="1565" y="9786"><tspan fill="rgb(0,0,0)" stroke="none">10,000</tspan></tspan></tspan></text>
 <text class="TextShape"><tspan class="TextParagraph" font-family="Liberation Sans, sans-serif" font-size="353px" font-weight="400"><tspan class="TextPosition" x="1565" y="7803"><tspan fill="rgb(0,0,0)" stroke="none">15,000</tspan></tspan></tspan></text>
 <text class="TextShape"><tspan class="TextParagraph" font-family="Liberation Sans, sans-serif" font-size="353px" font-weight="400"><tspan class="TextPosition" x="1565" y="5820"><tspan fill="rgb(0,0,0)" stroke="none">20,000</tspan></tspan></tspan></text>
 <text class="TextShape"><tspan class="TextParagraph" font-family="Liberation Sans, sans-serif" font-size="353px" font-weight="400"><tspan class="TextPosition" x="1565" y="3837"><tspan fill="rgb(0,0,0)" stroke="none">25,000</tspan></tspan></tspan></text>
 <text class="TextShape"><tspan class="TextParagraph" font-family="Liberation Sans, sans-serif" font-size="353px" font-weight="400"><tspan class="TextPosition" x="1565" y="1855"><tspan fill="rgb(0,0,0)" stroke="none">30,000</tspan></tspan></tspan></text>
 <text class="TextShape"><tspan class="TextParagraph" font-family="Liberation Sans, sans-serif" font-size="459px" font-weight="400"><tspan class="TextPosition" x="12016" y="982"><tspan fill="rgb(0,0,0)" stroke="none">Subsequent writes</tspan></tspan></tspan></text>
 <path fill="rgb(0,69,134)" stroke="none" d="M 23763,7144 L 23657,7144 23657,6933 23868,6933 23868,7144 23763,7144 Z"/>
 <path fill="rgb(255,66,14)" stroke="none" d="M 23763,7642 L 23657,7642 23657,7431 23868,7431 23868,7642 23763,7642 Z"/>
 <path fill="rgb(255,211,32)" stroke="none" d="M 23763,8139 L 23657,8139 23657,7928 23868,7928 23868,8139 23763,8139 Z"/>
 <path fill="rgb(87,157,28)" stroke="none" d="M 23763,8637 L 23657,8637 23657,8426 23868,8426 23868,8637 23763,8637 Z"/>
 <text class="TextShape"><tspan class="TextParagraph" font-family="Liberation Sans, sans-serif" font-size="353px" font-weight="400"><tspan class="TextPosition" x="23968" y="7158"><tspan fill="rgb(0,0,0)" stroke="none">boxed subsequent</tspan></tspan></tspan></text>
 <text class="TextShape"><tspan class="TextParagraph" font-family="Liberation Sans, sans-serif" font-size="353px" font-weight="400"><tspan class="TextPosition" x="23968" y="7656"><tspan fill="rgb(0,0,0)" stroke="none">flat subsequent</tspan></tspan></tspan></text>
 <text class="TextShape"><tspan class="TextParagraph" font-family="Liberation Sans, sans-serif" font-size="353px" font-weight="400"><tspan class="TextPosition" x="23968" y="8153"><tspan fill="rgb(0,0,0)" stroke="none">padded subsequent</tspan></tspan></tspan></text>
 <text class="TextShape"><tspan class="TextParagraph" font-family="Liberation Sans, sans-serif" font-size="353px" font-weight="400"><tspan class="TextPosition" x="23968" y="8651"><tspan fill="rgb(0,0,0)" stroke="none">remapped subsequent</tspan></tspan></tspan></text>
 <text class="TextShape"><tspan class="TextParagraph" font-family="Liberation Sans, sans-serif" font-size="318px" font-weight="400"><tspan class="TextPosition" x="11416" y="14977"><tspan fill="rgb(0,0,0)" stroke="none">array length</tspan></tspan></tspan></text>
 <text class="TextShape" transform="rotate(-90 837 8569)"><tspan class="TextParagraph" font-family="Liberation Sans, sans-serif" font-size="318px" font-weight="400"><tspan class="TextPosition" x="837" y="8569"><tspan fill="rgb(0,0,0)" stroke="none">time (ms)</tspan></tspan></tspan></text>
</svg>