<?xml version="1.0" encoding="UTF-8"?>
<!DOCTYPE svg PUBLIC "-//W3C//DTD SVG 1.1//EN" "http://www.w3.org/Graphics/SVG/1.1/DTD/svg11.dtd">
<svg width="211mm" height="95mm" viewBox="0 0 21100 9500" version="1.1" xmlns="http://www.w3.org/2000/svg" xmlns:xlink="http://www.w3.org/1999/xlink" stroke-width="28.222" stroke-linejoin="round" xml:space="preserve">
 <path fill="rgb(255,255,255)" stroke="none" d="M 10645,9482 L 154,9482 154,195 21137,195 21137,9482 10645,9482 Z"/>
 <path fill="none" stroke="rgb(179,179,179)" stroke-linejoin="round" d="M 8758,8418 L 1746,8418 1746,195 15770,195 15770,8418 8758,8418 Z"/>
 <path fill="none" stroke="rgb(179,179,179)" stroke-linejoin="round" d="M 15770,8417 L 1746,8417"/>
 <path fill="none" stroke="rgb(179,179,179)" stroke-linejoin="round" d="M 15770,6771 L 1746,6771"/>
 <path fill="none" stroke="rgb(179,179,179)" stroke-linejoin="round" d="M 15770,5127 L 1746,5127"/>
 <path fill="none" stroke="rgb(179,179,179)" stroke-linejoin="round" d="M 15770,3482 L 1746,3482"/>
 <path fill="none" stroke="rgb(179,179,179)" stroke-linejoin="round" d="M 15770,1838 L 1746,1838"/>
 <path fill="none" stroke="rgb(179,179,179)" stroke-linejoin="round" d="M 15770,194 L 1746,194"/>
 <path fill="none" stroke="rgb(221,221,221)" stroke-linejoin="round" d="M 15770,7921 L 1746,7921"/>
 <path fill="none" stroke="rgb(221,221,221)" stroke-linejoin="round" d="M 15770,7631 L 1746,7631"/>
 <path fill="none" stroke="rgb(221,221,221)" stroke-linejoin="round" d="M 15770,7426 L 1746,7426"/>
 <path fill="none" stroke="rgb(221,221,221)" stroke-linejoin="round" d="M 15770,7267 L 1746,7267"/>
 <path fill="none" stroke="rgb(221,221,221)" stroke-linejoin="round" d="M 15770,7137 L 1746,7137"/>
 <path fill="none" stroke="rgb(221,221,221)" stroke-linejoin="round" d="M 15770,7026 L 1746,7026"/>
 <path fill="none" stroke="rgb(221,221,221)" stroke-linejoin="round" d="M 15770,6931 L 1746,6931"/>
 <path fill="none" stroke="rgb(221,221,221)" stroke-linejoin="round" d="M 15770,6847 L 1746,6847"/>
 <path fill="none" stroke="rgb(221,221,221)" stroke-linejoin="round" d="M 15770,6277 L 1746,6277"/>
 <path fill="none" stroke="rgb(221,221,221)" stroke-linejoin="round" d="M 15770,5987 L 1746,5987"/>
 <path fill="none" stroke="rgb(221,221,221)" stroke-linejoin="round" d="M 15770,5781 L 1746,5781"/>
 <path fill="none" stroke="rgb(221,221,221)" stroke-linejoin="round" d="M 15770,5622 L 1746,5622"/>
 <path fill="none" stroke="rgb(221,221,221)" stroke-linejoin="round" d="M 15770,5492 L 1746,5492"/>
 <path fill="none" stroke="rgb(221,221,221)" stroke-linejoin="round" d="M 15770,5382 L 1746,5382"/>
 <path fill="none" stroke="rgb(221,221,221)" stroke-linejoin="round" d="M 15770,5286 L 1746,5286"/>
 <path fill="none" stroke="rgb(221,221,221)" stroke-linejoin="round" d="M 15770,5203 L 1746,5203"/>
 <path fill="none" stroke="rgb(221,221,221)" stroke-linejoin="round" d="M 15770,4632 L 1746,4632"/>
 <path fill="none" stroke="rgb(221,221,221)" stroke-linejoin="round" d="M 15770,4342 L 1746,4342"/>
 <path fill="none" stroke="rgb(221,221,221)" stroke-linejoin="round" d="M 15770,4137 L 1746,4137"/>
 <path fill="none" stroke="rgb(221,221,221)" stroke-linejoin="round" d="M 15770,3978 L 1746,3978"/>
 <path fill="none" stroke="rgb(221,221,221)" stroke-linejoin="round" d="M 15770,3847 L 1746,3847"/>
 <path fill="none" stroke="rgb(221,221,221)" stroke-linejoin="round" d="M 15770,3737 L 1746,3737"/>
 <path fill="none" stroke="rgb(221,221,221)" stroke-linejoin="round" d="M 15770,3642 L 1746,3642"/>
 <path fill="none" stroke="rgb(221,221,221)" stroke-linejoin="round" d="M 15770,3558 L 1746,3558"/>
 <path fill="none" stroke="rgb(221,221,221)" stroke-linejoin="round" d="M 15770,2988 L 1746,2988"/>
 <path fill="none" stroke="rgb(221,221,221)" stroke-linejoin="round" d="M 15770,2698 L 1746,2698"/>
 <path fill="none" stroke="rgb(221,221,221)" stroke-linejoin="round" d="M 15770,2492 L 1746,2492"/>
 <path fill="none" stroke="rgb(221,221,221)" stroke-linejoin="round" d="M 15770,2333 L 1746,2333"/>
 <path fill="none" stroke="rgb(221,221,221)" stroke-linejoin="round" d="M 15770,2202 L 1746,2202"/>
 <path fill="none" stroke="rgb(221,221,221)" stroke-linejoin="round" d="M 15770,2093 L 1746,2093"/>
 <path fill="none" stroke="rgb(221,221,221)" stroke-linejoin="round" d="M 15770,1998 L 1746,1998"/>
 <path fill="none" stroke="rgb(221,221,221)" stroke-linejoin="round" d="M 15770,1913 L 1746,1913"/>
 <path fill="none" stroke="rgb(221,221,221)" stroke-linejoin="round" d="M 15770,1343 L 1746,1343"/>
 <path fill="none" stroke="rgb(221,221,221)" stroke-linejoin="round" d="M 15770,1054 L 1746,1054"/>
 <path fill="none" stroke="rgb(221,221,221)" stroke-linejoin="round" d="M 15770,848 L 1746,848"/>
 <path fill="none" stroke="rgb(221,221,221)" stroke-linejoin="round" d="M 15770,688 L 1746,688"/>
 <path fill="none" stroke="rgb(221,221,221)" stroke-linejoin="round" d="M 15770,558 L 1746,558"/>
 <path fill="none" stroke="rgb(221,221,221)" stroke-linejoin="round" d="M 15770,448 L 1746,448"/>
 <path fill="none" stroke="rgb(221,221,221)" stroke-linejoin="round" d="M 15770,353 L 1746,353"/>
 <path fill="none" stroke="rgb(221,221,221)" stroke-linejoin="round" d="M 15770,268 L 1746,268"/>
 <path fill="none" stroke="rgb(179,179,179)" stroke-linejoin="round" d="M 1746,8563 L 1746,8417"/>
 <path fill="none" stroke="rgb(179,179,179)" stroke-linejoin="round" d="M 1746,8563 L 1746,8417"/>
 <path fill="none" stroke="rgb(179,179,179)" stroke-linejoin="round" d="M 3304,8563 L 3304,8417"/>
 <path fill="none" stroke="rgb(179,179,179)" stroke-linejoin="round" d="M 3304,8563 L 3304,8417"/>
 <path fill="none" stroke="rgb(179,179,179)" stroke-linejoin="round" d="M 4862,8563 L 4862,8417"/>
 <path fill="none" stroke="rgb(179,179,179)" stroke-linejoin="round" d="M 4862,8563 L 4862,8417"/>
 <path fill="none" stroke="rgb(179,179,179)" stroke-linejoin="round" d="M 6421,8563 L 6421,8417"/>
 <path fill="none" stroke="rgb(179,179,179)" stroke-linejoin="round" d="M 6421,8563 L 6421,8417"/>
 <path fill="none" stroke="rgb(179,179,179)" stroke-linejoin="round" d="M 7978,8563 L 7978,8417"/>
 <path fill="none" stroke="rgb(179,179,179)" stroke-linejoin="round" d="M 7978,8563 L 7978,8417"/>
 <path fill="none" stroke="rgb(179,179,179)" stroke-linejoin="round" d="M 9537,8563 L 9537,8417"/>
 <path fill="none" stroke="rgb(179,179,179)" stroke-linejoin="round" d="M 9537,8563 L 9537,8417"/>
 <path fill="none" stroke="rgb(179,179,179)" stroke-linejoin="round" d="M 11095,8563 L 11095,8417"/>
 <path fill="none" stroke="rgb(179,179,179)" stroke-linejoin="round" d="M 11095,8563 L 11095,8417"/>
 <path fill="none" stroke="rgb(179,179,179)" stroke-linejoin="round" d="M 12653,8563 L 12653,8417"/>
 <path fill="none" stroke="rgb(179,179,179)" stroke-linejoin="round" d="M 12653,8563 L 12653,8417"/>
 <path fill="none" stroke="rgb(179,179,179)" stroke-linejoin="round" d="M 14211,8563 L 14211,8417"/>
 <path fill="none" stroke="rgb(179,179,179)" stroke-linejoin="round" d="M 14211,8563 L 14211,8417"/>
 <path fill="none" stroke="rgb(179,179,179)" stroke-linejoin="round" d="M 15770,8563 L 15770,8417"/>
 <path fill="none" stroke="rgb(179,179,179)" stroke-linejoin="round" d="M 15770,8563 L 15770,8417"/>
 <path fill="none" stroke="rgb(179,179,179)" stroke-linejoin="round" d="M 1746,8417 L 15770,8417"/>
 <path fill="none" stroke="rgb(179,179,179)" stroke-linejoin="round" d="M 1597,8417 L 1746,8417"/>
 <path fill="none" stroke="rgb(179,179,179)" stroke-linejoin="round" d="M 1597,8417 L 1746,8417"/>
 <path fill="none" stroke="rgb(179,179,179)" stroke-linejoin="round" d="M 1597,6771 L 1746,6771"/>
 <path fill="none" stroke="rgb(179,179,179)" stroke-linejoin="round" d="M 1597,6771 L 1746,6771"/>
 <path fill="none" stroke="rgb(179,179,179)" stroke-linejoin="round" d="M 1597,5127 L 1746,5127"/>
 <path fill="none" stroke="rgb(179,179,179)" stroke-linejoin="round" d="M 1597,5127 L 1746,5127"/>
 <path fill="none" stroke="rgb(179,179,179)" stroke-linejoin="round" d="M 1597,3482 L 1746,3482"/>
 <path fill="none" stroke="rgb(179,179,179)" stroke-linejoin="round" d="M 1597,3482 L 1746,3482"/>
 <path fill="none" stroke="rgb(179,179,179)" stroke-linejoin="round" d="M 1597,1838 L 1746,1838"/>
 <path fill="none" stroke="rgb(179,179,179)" stroke-linejoin="round" d="M 1597,1838 L 1746,1838"/>
 <path fill="none" stroke="rgb(179,179,179)" stroke-linejoin="round" d="M 1597,194 L 1746,194"/>
 <path fill="none" stroke="rgb(179,179,179)" stroke-linejoin="round" d="M 1597,194 L 1746,194"/>
 <path fill="none" stroke="rgb(179,179,179)" stroke-linejoin="round" d="M 1746,7921 L 1857,7921"/>
 <path fill="none" stroke="rgb(179,179,179)" stroke-linejoin="round" d="M 1746,7921 L 1857,7921"/>
 <path fill="none" stroke="rgb(179,179,179)" stroke-linejoin="round" d="M 1746,7631 L 1857,7631"/>
 <path fill="none" stroke="rgb(179,179,179)" stroke-linejoin="round" d="M 1746,7631 L 1857,7631"/>
 <path fill="none" stroke="rgb(179,179,179)" stroke-linejoin="round" d="M 1746,7426 L 1857,7426"/>
 <path fill="none" stroke="rgb(179,179,179)" stroke-linejoin="round" d="M 1746,7426 L 1857,7426"/>
 <path fill="none" stroke="rgb(179,179,179)" stroke-linejoin="round" d="M 1746,7267 L 1857,7267"/>
 <path fill="none" stroke="rgb(179,179,179)" stroke-linejoin="round" d="M 1746,7267 L 1857,7267"/>
 <path fill="none" stroke="rgb(179,179,179)" stroke-linejoin="round" d="M 1746,7137 L 1857,7137"/>
 <path fill="none" stroke="rgb(179,179,179)" stroke-linejoin="round" d="M 1746,7137 L 1857,7137"/>
 <path fill="none" stroke="rgb(179,179,179)" stroke-linejoin="round" d="M 1746,7026 L 1857,7026"/>
 <path fill="none" stroke="rgb(179,179,179)" stroke-linejoin="round" d="M 1746,7026 L 1857,7026"/>
 <path fill="none" stroke="rgb(179,179,179)" stroke-linejoin="round" d="M 1746,6931 L 1857,6931"/>
 <path fill="none" stroke="rgb(179,179,179)" stroke-linejoin="round" d="M 1746,6931 L 1857,6931"/>
 <path fill="none" stroke="rgb(179,179,179)" stroke-linejoin="round" d="M 1746,6847 L 1857,6847"/>
 <path fill="none" stroke="rgb(179,179,179)" stroke-linejoin="round" d="M 1746,6847 L 1857,6847"/>
 <path fill="none" stroke="rgb(179,179,179)" stroke-linejoin="round" d="M 1746,6277 L 1857,6277"/>
 <path fill="none" stroke="rgb(179,179,179)" stroke-linejoin="round" d="M 1746,6277 L 1857,6277"/>
 <path fill="none" stroke="rgb(179,179,179)" stroke-linejoin="round" d="M 1746,5987 L 1857,5987"/>
 <path fill="none" stroke="rgb(179,179,179)" stroke-linejoin="round" d="M 1746,5987 L 1857,5987"/>
 <path fill="none" stroke="rgb(179,179,179)" stroke-linejoin="round" d="M 1746,5781 L 1857,5781"/>
 <path fill="none" stroke="rgb(179,179,179)" stroke-linejoin="round" d="M 1746,5781 L 1857,5781"/>
 <path fill="none" stroke="rgb(179,179,179)" stroke-linejoin="round" d="M 1746,5622 L 1857,5622"/>
 <path fill="none" stroke="rgb(179,179,179)" stroke-linejoin="round" d="M 1746,5622 L 1857,5622"/>
 <path fill="none" stroke="rgb(179,179,179)" stroke-linejoin="round" d="M 1746,5492 L 1857,5492"/>
 <path fill="none" stroke="rgb(179,179,179)" stroke-linejoin="round" d="M 1746,5492 L 1857,5492"/>
 <path fill="none" stroke="rgb(179,179,179)" stroke-linejoin="round" d="M 1746,5382 L 1857,5382"/>
 <path fill="none" stroke="rgb(179,179,179)" stroke-linejoin="round" d="M 1746,5382 L 1857,5382"/>
 <path fill="none" stroke="rgb(179,179,179)" stroke-linejoin="round" d="M 1746,5286 L 1857,5286"/>
 <path fill="none" stroke="rgb(179,179,179)" stroke-linejoin="round" d="M 1746,5286 L 1857,5286"/>
 <path fill="none" stroke="rgb(179,179,179)" stroke-linejoin="round" d="M 1746,5203 L 1857,5203"/>
 <path fill="none" stroke="rgb(179,179,179)" stroke-linejoin="round" d="M 1746,5203 L 1857,5203"/>
 <path fill="none" stroke="rgb(179,179,179)" stroke-linejoin="round" d="M 1746,4632 L 1857,4632"/>
 <path fill="none" stroke="rgb(179,179,179)" stroke-linejoin="round" d="M 1746,4632 L 1857,4632"/>
 <path fill="none" stroke="rgb(179,179,179)" stroke-linejoin="round" d="M 1746,4342 L 1857,4342"/>
 <path fill="none" stroke="rgb(179,179,179)" stroke-linejoin="round" d="M 1746,4342 L 1857,4342"/>
 <path fill="none" stroke="rgb(179,179,179)" stroke-linejoin="round" d="M 1746,4137 L 1857,4137"/>
 <path fill="none" stroke="rgb(179,179,179)" stroke-linejoin="round" d="M 1746,4137 L 1857,4137"/>
 <path fill="none" stroke="rgb(179,179,179)" stroke-linejoin="round" d="M 1746,3978 L 1857,3978"/>
 <path fill="none" stroke="rgb(179,179,179)" stroke-linejoin="round" d="M 1746,3978 L 1857,3978"/>
 <path fill="none" stroke="rgb(179,179,179)" stroke-linejoin="round" d="M 1746,3847 L 1857,3847"/>
 <path fill="none" stroke="rgb(179,179,179)" stroke-linejoin="round" d="M 1746,3847 L 1857,3847"/>
 <path fill="none" stroke="rgb(179,179,179)" stroke-linejoin="round" d="M 1746,3737 L 1857,3737"/>
 <path fill="none" stroke="rgb(179,179,179)" stroke-linejoin="round" d="M 1746,3737 L 1857,3737"/>
 <path fill="none" stroke="rgb(179,179,179)" stroke-linejoin="round" d="M 1746,3642 L 1857,3642"/>
 <path fill="none" stroke="rgb(179,179,179)" stroke-linejoin="round" d="M 1746,3642 L 1857,3642"/>
 <path fill="none" stroke="rgb(179,179,179)" stroke-linejoin="round" d="M 1746,3558 L 1857,3558"/>
 <path fill="none" stroke="rgb(179,179,179)" stroke-linejoin="round" d="M 1746,3558 L 1857,3558"/>
 <path fill="none" stroke="rgb(179,179,179)" stroke-linejoin="round" d="M 1746,2988 L 1857,2988"/>
 <path fill="none" stroke="rgb(179,179,179)" stroke-linejoin="round" d="M 1746,2988 L 1857,2988"/>
 <path fill="none" stroke="rgb(179,179,179)" stroke-linejoin="round" d="M 1746,2698 L 1857,2698"/>
 <path fill="none" stroke="rgb(179,179,179)" stroke-linejoin="round" d="M 1746,2698 L 1857,2698"/>
 <path fill="none" stroke="rgb(179,179,179)" stroke-linejoin="round" d="M 1746,2492 L 1857,2492"/>
 <path fill="none" stroke="rgb(179,179,179)" stroke-linejoin="round" d="M 1746,2492 L 1857,2492"/>
 <path fill="none" stroke="rgb(179,179,179)" stroke-linejoin="round" d="M 1746,2333 L 1857,2333"/>
 <path fill="none" stroke="rgb(179,179,179)" stroke-linejoin="round" d="M 1746,2333 L 1857,2333"/>
 <path fill="none" stroke="rgb(179,179,179)" stroke-linejoin="round" d="M 1746,2202 L 1857,2202"/>
 <path fill="none" stroke="rgb(179,179,179)" stroke-linejoin="round" d="M 1746,2202 L 1857,2202"/>
 <path fill="none" stroke="rgb(179,179,179)" stroke-linejoin="round" d="M 1746,2093 L 1857,2093"/>
 <path fill="none" stroke="rgb(179,179,179)" stroke-linejoin="round" d="M 1746,2093 L 1857,2093"/>
 <path fill="none" stroke="rgb(179,179,179)" stroke-linejoin="round" d="M 1746,1998 L 1857,1998"/>
 <path fill="none" stroke="rgb(179,179,179)" stroke-linejoin="round" d="M 1746,1998 L 1857,1998"/>
 <path fill="none" stroke="rgb(179,179,179)" stroke-linejoin="round" d="M 1746,1913 L 1857,1913"/>
 <path fill="none" stroke="rgb(179,179,179)" stroke-linejoin="round" d="M 1746,1913 L 1857,1913"/>
 <path fill="none" stroke="rgb(179,179,179)" stroke-linejoin="round" d="M 1746,1343 L 1857,1343"/>
 <path fill="none" stroke="rgb(179,179,179)" stroke-linejoin="round" d="M 1746,1343 L 1857,1343"/>
 <path fill="none" stroke="rgb(179,179,179)" stroke-linejoin="round" d="M 1746,1054 L 1857,1054"/>
 <path fill="none" stroke="rgb(179,179,179)" stroke-linejoin="round" d="M 1746,1054 L 1857,1054"/>
 <path fill="none" stroke="rgb(179,179,179)" stroke-linejoin="round" d="M 1746,848 L 1857,848"/>
 <path fill="none" stroke="rgb(179,179,179)" stroke-linejoin="round" d="M 1746,848 L 1857,848"/>
 <path fill="none" stroke="rgb(179,179,179)" stroke-linejoin="round" d="M 1746,688 L 1857,688"/>
 <path fill="none" stroke="rgb(179,179,179)" stroke-linejoin="round" d="M 1746,688 L 1857,688"/>
 <path fill="none" stroke="rgb(179,179,179)" stroke-linejoin="round" d="M 1746,558 L 1857,558"/>
 <path fill="none" stroke="rgb(179,179,179)" stroke-linejoin="round" d="M 1746,558 L 1857,558"/>
 <path fill="none" stroke="rgb(179,179,179)" stroke-linejoin="round" d="M 1746,448 L 1857,448"/>
 <path fill="none" stroke="rgb(179,179,179)" stroke-linejoin="round" d="M 1746,448 L 1857,448"/>
 <path fill="none" stroke="rgb(179,179,179)" stroke-linejoin="round" d="M 1746,353 L 1857,353"/>
 <path fill="none" stroke="rgb(179,179,179)" stroke-linejoin="round" d="M 1746,353 L 1857,353"/>
 <path fill="none" stroke="rgb(179,179,179)" stroke-linejoin="round" d="M 1746,268 L 1857,268"/>
 <path fill="none" stroke="rgb(179,179,179)" stroke-linejoin="round" d="M 1746,268 L 1857,268"/>
 <path fill="none" stroke="rgb(179,179,179)" stroke-linejoin="round" d="M 1746,8417 L 1746,194"/>
 <path fill="rgb(0,69,134)" stroke="none" d="M 14367,8417 L 14679,8417 14679,2630 14367,2630 14367,8417 Z"/>
 <path fill="rgb(0,69,134)" stroke="none" d="M 12808,8417 L 13120,8417 13120,3193 12808,3193 12808,8417 Z"/>
 <path fill="rgb(0,69,134)" stroke="none" d="M 11250,8417 L 11562,8417 11562,3756 11250,3756 11250,8417 Z"/>
 <path fill="rgb(0,69,134)" stroke="none" d="M 9692,8417 L 10004,8417 10004,4468 9692,4468 9692,8417 Z"/>
 <path fill="rgb(0,69,134)" stroke="none" d="M 8134,8417 L 8446,8417 8446,5036 8134,5036 8134,8417 Z"/>
 <path fill="rgb(0,69,134)" stroke="none" d="M 6575,8417 L 6887,8417 6887,5546 6575,5546 6575,8417 Z"/>
 <path fill="rgb(0,69,134)" stroke="none" d="M 5018,8417 L 5330,8417 5330,6030 5018,6030 5018,8417 Z"/>
 <path fill="rgb(0,69,134)" stroke="none" d="M 3459,8417 L 3771,8417 3771,6511 3459,6511 3459,8417 Z"/>
 <path fill="rgb(0,69,134)" stroke="none" d="M 1901,8417 L 2213,8417 2213,6979 1901,6979 1901,8417 Z"/>
 <path fill="rgb(255,66,14)" stroke="none" d="M 14679,8417 L 14990,8417 14990,1799 14679,1799 14679,8417 Z"/>
 <path fill="rgb(255,66,14)" stroke="none" d="M 13120,8417 L 13432,8417 13432,2693 13120,2693 13120,8417 Z"/>
 <path fill="rgb(255,66,14)" stroke="none" d="M 11562,8417 L 11873,8417 11873,3285 11562,3285 11562,8417 Z"/>
 <path fill="rgb(255,66,14)" stroke="none" d="M 10004,8417 L 10316,8417 10316,3920 10004,3920 10004,8417 Z"/>
 <path fill="rgb(255,66,14)" stroke="none" d="M 8446,8417 L 8757,8417 8757,4685 8446,4685 8446,8417 Z"/>
 <path fill="rgb(255,66,14)" stroke="none" d="M 6887,8417 L 7199,8417 7199,5293 6887,5293 6887,8417 Z"/>
 <path fill="rgb(255,66,14)" stroke="none" d="M 5330,8417 L 5641,8417 5641,5861 5330,5861 5330,8417 Z"/>
 <path fill="rgb(255,66,14)" stroke="none" d="M 3771,8417 L 4083,8417 4083,6382 3771,6382 3771,8417 Z"/>
 <path fill="rgb(255,66,14)" stroke="none" d="M 2213,8417 L 2524,8417 2524,6924 2213,6924 2213,8417 Z"/>
 <path fill="rgb(255,211,32)" stroke="none" d="M 14990,8417 L 15302,8417 15302,3277 14990,3277 14990,8417 Z"/>
 <path fill="rgb(255,211,32)" stroke="none" d="M 13432,8417 L 13744,8417 13744,3755 13432,3755 13432,8417 Z"/>
 <path fill="rgb(255,211,32)" stroke="none" d="M 11873,8417 L 12185,8417 12185,4270 11873,4270 11873,8417 Z"/>
 <path fill="rgb(255,211,32)" stroke="none" d="M 10316,8417 L 10628,8417 10628,4768 10316,4768 10316,8417 Z"/>
 <path fill="rgb(255,211,32)" stroke="none" d="M 8757,8417 L 9069,8417 9069,5261 8757,5261 8757,8417 Z"/>
 <path fill="rgb(255,211,32)" stroke="none" d="M 7199,8417 L 7511,8417 7511,5749 7199,5749 7199,8417 Z"/>
 <path fill="rgb(255,211,32)" stroke="none" d="M 5641,8417 L 5953,8417 5953,6235 5641,6235 5641,8417 Z"/>
 <path fill="rgb(255,211,32)" stroke="none" d="M 4083,8417 L 4395,8417 4395,6710 4083,6710 4083,8417 Z"/>
 <path fill="rgb(255,211,32)" stroke="none" d="M 2524,8417 L 2836,8417 2836,7171 2524,7171 2524,8417 Z"/>
 <path fill="rgb(87,157,28)" stroke="none" d="M 15302,8417 L 15614,8417 15614,3130 15302,3130 15302,8417 Z"/>
 <path fill="rgb(87,157,28)" stroke="none" d="M 13744,8417 L 14055,8417 14055,3719 13744,3719 13744,8417 Z"/>
 <path fill="rgb(87,157,28)" stroke="none" d="M 12185,8417 L 12497,8417 12497,4221 12185,4221 12185,8417 Z"/>
 <path fill="rgb(87,157,28)" stroke="none" d="M 10628,8417 L 10939,8417 10939,4727 10628,4727 10628,8417 Z"/>
 <path fill="rgb(87,157,28)" stroke="none" d="M 9069,8417 L 9381,8417 9381,5253 9069,5253 9069,8417 Z"/>
 <path fill="rgb(87,157,28)" stroke="none" d="M 7511,8417 L 7822,8417 7822,5738 7511,5738 7511,8417 Z"/>
 <path fill="rgb(87,157,28)" stroke="none" d="M 5953,8417 L 6265,8417 6265,6225 5953,6225 5953,8417 Z"/>
 <path fill="rgb(87,157,28)" stroke="none" d="M 4395,8417 L 4706,8417 4706,6701 4395,6701 4395,8417 Z"/>
 <path fill="rgb(87,157,28)" stroke="none" d="M 2836,8417 L 3148,8417 3148,7147 2836,7147 2836,8417 Z"/>
 <text class="TextShape"><tspan class="TextParagraph" font-family="Liberation Sans, sans-serif" font-size="346px" font-weight="400"><tspan class="TextPosition" x="2157" y="8973"><tspan fill="rgb(0,0,0)" stroke="none">2048</tspan></tspan></tspan></text>
 <text class="TextShape"><tspan class="TextParagraph" font-family="Liberation Sans, sans-serif" font-size="346px" font-weight="400"><tspan class="TextPosition" x="3715" y="8973"><tspan fill="rgb(0,0,0)" stroke="none">4096</tspan></tspan></tspan></text>
 <text class="TextShape"><tspan class="TextParagraph" font-family="Liberation Sans, sans-serif" font-size="346px" font-weight="400"><tspan class="TextPosition" x="5274" y="8973"><tspan fill="rgb(0,0,0)" stroke="none">8192</tspan></tspan></tspan></text>
 <text class="TextShape"><tspan class="TextParagraph" font-family="Liberation Sans, sans-serif" font-size="346px" font-weight="400"><tspan class="TextPosition" x="6740" y="8973"><tspan fill="rgb(0,0,0)" stroke="none">16384</tspan></tspan></tspan></text>
 <text class="TextShape"><tspan class="TextParagraph" font-family="Liberation Sans, sans-serif" font-size="346px" font-weight="400"><tspan class="TextPosition" x="8298" y="8973"><tspan fill="rgb(0,0,0)" stroke="none">32768</tspan></tspan></tspan></text>
 <text class="TextShape"><tspan class="TextParagraph" font-family="Liberation Sans, sans-serif" font-size="346px" font-weight="400"><tspan class="TextPosition" x="9857" y="8973"><tspan fill="rgb(0,0,0)" stroke="none">65536</tspan></tspan></tspan></text>
 <text class="TextShape"><tspan class="TextParagraph" font-family="Liberation Sans, sans-serif" font-size="346px" font-weight="400"><tspan class="TextPosition" x="11322" y="8973"><tspan fill="rgb(0,0,0)" stroke="none">131072</tspan></tspan></tspan></text>
 <text class="TextShape"><tspan class="TextParagraph" font-family="Liberation Sans, sans-serif" font-size="346px" font-weight="400"><tspan class="TextPosition" x="12880" y="8973"><tspan fill="rgb(0,0,0)" stroke="none">262144</tspan></tspan></tspan></text>
 <text class="TextShape"><tspan class="TextParagraph" font-family="Liberation Sans, sans-serif" font-size="346px" font-weight="400"><tspan class="TextPosition" x="14439" y="8973"><tspan fill="rgb(0,0,0)" stroke="none">524288</tspan></tspan></tspan></text>
 <text class="TextShape"><tspan class="TextParagraph" font-family="Liberation Sans, sans-serif" font-size="346px" font-weight="400"><tspan class="TextPosition" x="1131" y="8535"><tspan fill="rgb(0,0,0)" stroke="none">10</tspan></tspan></tspan></text>
 <text class="TextShape"><tspan class="TextParagraph" font-family="Liberation Sans, sans-serif" font-size="346px" font-weight="400"><tspan class="TextPosition" x="946" y="6889"><tspan fill="rgb(0,0,0)" stroke="none">100</tspan></tspan></tspan></text>
 <text class="TextShape"><tspan class="TextParagraph" font-family="Liberation Sans, sans-serif" font-size="346px" font-weight="400"><tspan class="TextPosition" x="657" y="5245"><tspan fill="rgb(0,0,0)" stroke="none">1,000</tspan></tspan></tspan></text>
 <text class="TextShape"><tspan class="TextParagraph" font-family="Liberation Sans, sans-serif" font-size="346px" font-weight="400"><tspan class="TextPosition" x="474" y="3600"><tspan fill="rgb(0,0,0)" stroke="none">10,000</tspan></tspan></tspan></text>
 <text class="TextShape"><tspan class="TextParagraph" font-family="Liberation Sans, sans-serif" font-size="346px" font-weight="400"><tspan class="TextPosition" x="290" y="1956"><tspan fill="rgb(0,0,0)" stroke="none">100,000</tspan></tspan></tspan></text>
 <text class="TextShape"><tspan class="TextParagraph" font-family="Liberation Sans, sans-serif" font-size="346px" font-weight="400"><tspan class="TextPosition" x="1" y="312"><tspan fill="rgb(0,0,0)" stroke="none">1,000,000</tspan></tspan></tspan></text>
 <path fill="rgb(0,69,134)" stroke="none" d="M 16095,4210 L 15990,4210 15990,4003 16199,4003 16199,4210 16095,4210 Z"/>
 <path fill="rgb(255,66,14)" stroke="none" d="M 16095,4697 L 15990,4697 15990,4491 16199,4491 16199,4697 16095,4697 Z"/>
 <path fill="rgb(255,211,32)" stroke="none" d="M 16095,5185 L 15990,5185 15990,4978 16199,4978 16199,5185 16095,5185 Z"/>
 <path fill="rgb(87,157,28)" stroke="none" d="M 16095,5673 L 15990,5673 15990,5466 16199,5466 16199,5673 16095,5673 Z"/>
 <text class="TextShape"><tspan class="TextParagraph" font-family="Liberation Sans, sans-serif" font-size="346px" font-weight="400"><tspan class="TextPosition" x="16299" y="4223"><tspan fill="rgb(0,0,0)" stroke="none">random accesses, unboxed</tspan></tspan></tspan></text>
 <text class="TextShape"><tspan class="TextParagraph" font-family="Liberation Sans, sans-serif" font-size="346px" font-weight="400"><tspan class="TextPosition" x="16299" y="4711"><tspan fill="rgb(0,0,0)" stroke="none">random accesses, boxed</tspan></tspan></tspan></text>
 <text class="TextShape"><tspan class="TextParagraph" font-family="Liberation Sans, sans-serif" font-size="346px" font-weight="400"><tspan class="TextPosition" x="16299" y="5199"><tspan fill="rgb(0,0,0)" stroke="none">sequential accesses, unboxed</tspan></tspan></tspan></text>
 <text class="TextShape"><tspan class="TextParagraph" font-family="Liberation Sans, sans-serif" font-size="346px" font-weight="400"><tspan class="TextPosition" x="16299" y="5686"><tspan fill="rgb(0,0,0)" stroke="none">sequential accesses, boxed</tspan></tspan></tspan></text>
 <text class="TextShape"><tspan class="TextParagraph" font-family="Liberation Sans, sans-serif" font-size="311px" font-weight="400"><tspan class="TextPosition" x="7176" y="9312"><tspan fill="rgb(0,0,0)" stroke="none">Array size</tspan></tspan></tspan></text>
 <text class="TextShape" transform="rotate(-90 538 5225)"><tspan class="TextParagraph" font-family="Liberation Sans, sans-serif" font-size="316px" font-weight="400"><tspan class="TextPosition" x="538" y="5225"><tspan fill="rgb(0,0,0)" stroke="none">Time (ms)</tspan></tspan></tspan></text>
</svg>