<?xml version="1.0" encoding="UTF-8"?>
<!DOCTYPE svg PUBLIC "-//W3C//DTD SVG 1.1//EN" "http://www.w3.org/Graphics/SVG/1.1/DTD/svg11.dtd">
<svg width="210mm" height="95mm" viewBox="0 0 21000 9500" version="1.1" xmlns="http://www.w3.org/2000/svg" xmlns:xlink="http://www.w3.org/1999/xlink" stroke-width="28.222" stroke-linejoin="round" xml:space="preserve">
 <path fill="rgb(255,255,255)" stroke="none" d="M 10491,9482 L 0,9482 0,196 20981,196 20981,9482 10491,9482 Z"/>
 <path fill="none" stroke="rgb(179,179,179)" stroke-linejoin="round" d="M 8551,8363 L 1718,8363 1718,195 15384,195 15384,8363 8551,8363 Z"/>
 <path fill="none" stroke="rgb(179,179,179)" stroke-linejoin="round" d="M 15384,8362 L 1718,8362"/>
 <path fill="none" stroke="rgb(179,179,179)" stroke-linejoin="round" d="M 15384,7000 L 1718,7000"/>
 <path fill="none" stroke="rgb(179,179,179)" stroke-linejoin="round" d="M 15384,5639 L 1718,5639"/>
 <path fill="none" stroke="rgb(179,179,179)" stroke-linejoin="round" d="M 15384,4278 L 1718,4278"/>
 <path fill="none" stroke="rgb(179,179,179)" stroke-linejoin="round" d="M 15384,2916 L 1718,2916"/>
 <path fill="none" stroke="rgb(179,179,179)" stroke-linejoin="round" d="M 15384,1555 L 1718,1555"/>
 <path fill="none" stroke="rgb(179,179,179)" stroke-linejoin="round" d="M 15384,194 L 1718,194"/>
 <path fill="none" stroke="rgb(179,179,179)" stroke-linejoin="round" d="M 1718,8509 L 1718,8362"/>
 <path fill="none" stroke="rgb(179,179,179)" stroke-linejoin="round" d="M 1718,8509 L 1718,8362"/>
 <path fill="none" stroke="rgb(179,179,179)" stroke-linejoin="round" d="M 3236,8509 L 3236,8362"/>
 <path fill="none" stroke="rgb(179,179,179)" stroke-linejoin="round" d="M 3236,8509 L 3236,8362"/>
 <path fill="none" stroke="rgb(179,179,179)" stroke-linejoin="round" d="M 4755,8509 L 4755,8362"/>
 <path fill="none" stroke="rgb(179,179,179)" stroke-linejoin="round" d="M 4755,8509 L 4755,8362"/>
 <path fill="none" stroke="rgb(179,179,179)" stroke-linejoin="round" d="M 6273,8509 L 6273,8362"/>
 <path fill="none" stroke="rgb(179,179,179)" stroke-linejoin="round" d="M 6273,8509 L 6273,8362"/>
 <path fill="none" stroke="rgb(179,179,179)" stroke-linejoin="round" d="M 7792,8509 L 7792,8362"/>
 <path fill="none" stroke="rgb(179,179,179)" stroke-linejoin="round" d="M 7792,8509 L 7792,8362"/>
 <path fill="none" stroke="rgb(179,179,179)" stroke-linejoin="round" d="M 9310,8509 L 9310,8362"/>
 <path fill="none" stroke="rgb(179,179,179)" stroke-linejoin="round" d="M 9310,8509 L 9310,8362"/>
 <path fill="none" stroke="rgb(179,179,179)" stroke-linejoin="round" d="M 10828,8509 L 10828,8362"/>
 <path fill="none" stroke="rgb(179,179,179)" stroke-linejoin="round" d="M 10828,8509 L 10828,8362"/>
 <path fill="none" stroke="rgb(179,179,179)" stroke-linejoin="round" d="M 12346,8509 L 12346,8362"/>
 <path fill="none" stroke="rgb(179,179,179)" stroke-linejoin="round" d="M 12346,8509 L 12346,8362"/>
 <path fill="none" stroke="rgb(179,179,179)" stroke-linejoin="round" d="M 13865,8509 L 13865,8362"/>
 <path fill="none" stroke="rgb(179,179,179)" stroke-linejoin="round" d="M 13865,8509 L 13865,8362"/>
 <path fill="none" stroke="rgb(179,179,179)" stroke-linejoin="round" d="M 15384,8509 L 15384,8362"/>
 <path fill="none" stroke="rgb(179,179,179)" stroke-linejoin="round" d="M 15384,8509 L 15384,8362"/>
 <path fill="none" stroke="rgb(179,179,179)" stroke-linejoin="round" d="M 1718,8362 L 15384,8362"/>
 <path fill="none" stroke="rgb(179,179,179)" stroke-linejoin="round" d="M 1568,8362 L 1718,8362"/>
 <path fill="none" stroke="rgb(179,179,179)" stroke-linejoin="round" d="M 1568,8362 L 1718,8362"/>
 <path fill="none" stroke="rgb(179,179,179)" stroke-linejoin="round" d="M 1568,7000 L 1718,7000"/>
 <path fill="none" stroke="rgb(179,179,179)" stroke-linejoin="round" d="M 1568,7000 L 1718,7000"/>
 <path fill="none" stroke="rgb(179,179,179)" stroke-linejoin="round" d="M 1568,5639 L 1718,5639"/>
 <path fill="none" stroke="rgb(179,179,179)" stroke-linejoin="round" d="M 1568,5639 L 1718,5639"/>
 <path fill="none" stroke="rgb(179,179,179)" stroke-linejoin="round" d="M 1568,4278 L 1718,4278"/>
 <path fill="none" stroke="rgb(179,179,179)" stroke-linejoin="round" d="M 1568,4278 L 1718,4278"/>
 <path fill="none" stroke="rgb(179,179,179)" stroke-linejoin="round" d="M 1568,2916 L 1718,2916"/>
 <path fill="none" stroke="rgb(179,179,179)" stroke-linejoin="round" d="M 1568,2916 L 1718,2916"/>
 <path fill="none" stroke="rgb(179,179,179)" stroke-linejoin="round" d="M 1568,1555 L 1718,1555"/>
 <path fill="none" stroke="rgb(179,179,179)" stroke-linejoin="round" d="M 1568,1555 L 1718,1555"/>
 <path fill="none" stroke="rgb(179,179,179)" stroke-linejoin="round" d="M 1568,194 L 1718,194"/>
 <path fill="none" stroke="rgb(179,179,179)" stroke-linejoin="round" d="M 1568,194 L 1718,194"/>
 <path fill="none" stroke="rgb(179,179,179)" stroke-linejoin="round" d="M 1718,8362 L 1718,194"/>
 <path fill="rgb(0,69,134)" stroke="none" d="M 14017,8362 L 14321,8362 14321,6116 14017,6116 14017,8362 Z"/>
 <path fill="rgb(0,69,134)" stroke="none" d="M 12498,8362 L 12802,8362 12802,7341 12498,7341 12498,8362 Z"/>
 <path fill="rgb(0,69,134)" stroke="none" d="M 10980,8362 L 11283,8362 11283,7898 10980,7898 10980,8362 Z"/>
 <path fill="rgb(0,69,134)" stroke="none" d="M 9462,8362 L 9766,8362 9766,8191 9462,8191 9462,8362 Z"/>
 <path fill="rgb(0,69,134)" stroke="none" d="M 7944,8362 L 8247,8362 8247,8285 7944,8285 7944,8362 Z"/>
 <path fill="rgb(0,69,134)" stroke="none" d="M 6425,8362 L 6729,8362 6729,8324 6425,8324 6425,8362 Z"/>
 <path fill="rgb(0,69,134)" stroke="none" d="M 4906,8362 L 5210,8362 5210,8342 4906,8342 4906,8362 Z"/>
 <path fill="rgb(0,69,134)" stroke="none" d="M 3388,8362 L 3692,8362 3692,8351 3388,8351 3388,8362 Z"/>
 <path fill="rgb(0,69,134)" stroke="none" d="M 1869,8362 L 2173,8362 2173,8356 1869,8356 1869,8362 Z"/>
 <path fill="rgb(255,66,14)" stroke="none" d="M 14321,8362 L 14624,8362 14624,1169 14321,1169 14321,8362 Z"/>
 <path fill="rgb(255,66,14)" stroke="none" d="M 12802,8362 L 13106,8362 13106,6306 12802,6306 12802,8362 Z"/>
 <path fill="rgb(255,66,14)" stroke="none" d="M 11283,8362 L 11587,8362 11587,7464 11283,7464 11283,8362 Z"/>
 <path fill="rgb(255,66,14)" stroke="none" d="M 9766,8362 L 10070,8362 10070,7993 9766,7993 9766,8362 Z"/>
 <path fill="rgb(255,66,14)" stroke="none" d="M 8247,8362 L 8551,8362 8551,8235 8247,8235 8247,8362 Z"/>
 <path fill="rgb(255,66,14)" stroke="none" d="M 6729,8362 L 7032,8362 7032,8307 6729,8307 6729,8362 Z"/>
 <path fill="rgb(255,66,14)" stroke="none" d="M 5210,8362 L 5514,8362 5514,8337 5210,8337 5210,8362 Z"/>
 <path fill="rgb(255,66,14)" stroke="none" d="M 3692,8362 L 3995,8362 3995,8350 3692,8350 3692,8362 Z"/>
 <path fill="rgb(255,66,14)" stroke="none" d="M 2173,8362 L 2477,8362 2477,8356 2173,8356 2173,8362 Z"/>
 <path fill="rgb(255,211,32)" stroke="none" d="M 14624,8362 L 14928,8362 14928,7453 14624,7453 14624,8362 Z"/>
 <path fill="rgb(255,211,32)" stroke="none" d="M 13106,8362 L 13409,8362 13409,7897 13106,7897 13106,8362 Z"/>
 <path fill="rgb(255,211,32)" stroke="none" d="M 11587,8362 L 11891,8362 11891,8136 11587,8136 11587,8362 Z"/>
 <path fill="rgb(255,211,32)" stroke="none" d="M 10070,8362 L 10373,8362 10373,8249 10070,8249 10070,8362 Z"/>
 <path fill="rgb(255,211,32)" stroke="none" d="M 8551,8362 L 8855,8362 8855,8305 8551,8305 8551,8362 Z"/>
 <path fill="rgb(255,211,32)" stroke="none" d="M 7032,8362 L 7336,8362 7336,8333 7032,8333 7032,8362 Z"/>
 <path fill="rgb(255,211,32)" stroke="none" d="M 5514,8362 L 5818,8362 5818,8347 5514,8347 5514,8362 Z"/>
 <path fill="rgb(255,211,32)" stroke="none" d="M 3995,8362 L 4299,8362 4299,8354 3995,8354 3995,8362 Z"/>
 <path fill="rgb(255,211,32)" stroke="none" d="M 2477,8362 L 2780,8362 2780,8358 2477,8358 2477,8362 Z"/>
 <path fill="rgb(87,157,28)" stroke="none" d="M 14928,8362 L 15232,8362 15232,7246 14928,7246 14928,8362 Z"/>
 <path fill="rgb(87,157,28)" stroke="none" d="M 13409,8362 L 13713,8362 13713,7873 13409,7873 13409,8362 Z"/>
 <path fill="rgb(87,157,28)" stroke="none" d="M 11891,8362 L 12195,8362 12195,8119 11891,8119 11891,8362 Z"/>
 <path fill="rgb(87,157,28)" stroke="none" d="M 10373,8362 L 10676,8362 10676,8242 10373,8242 10373,8362 Z"/>
 <path fill="rgb(87,157,28)" stroke="none" d="M 8855,8362 L 9158,8362 9158,8304 8855,8304 8855,8362 Z"/>
 <path fill="rgb(87,157,28)" stroke="none" d="M 7336,8362 L 7640,8362 7640,8333 7336,8333 7336,8362 Z"/>
 <path fill="rgb(87,157,28)" stroke="none" d="M 5818,8362 L 6121,8362 6121,8347 5818,8347 5818,8362 Z"/>
 <path fill="rgb(87,157,28)" stroke="none" d="M 4299,8362 L 4603,8362 4603,8354 4299,8354 4299,8362 Z"/>
 <path fill="rgb(87,157,28)" stroke="none" d="M 2780,8362 L 3084,8362 3084,8357 2780,8357 2780,8362 Z"/>
 <text class="TextShape"><tspan class="TextParagraph" font-family="Liberation Sans, sans-serif" font-size="346px" font-weight="400"><tspan class="TextPosition" x="2106" y="8918"><tspan fill="rgb(0,0,0)" stroke="none">2048</tspan></tspan></tspan></text>
 <text class="TextShape"><tspan class="TextParagraph" font-family="Liberation Sans, sans-serif" font-size="346px" font-weight="400"><tspan class="TextPosition" x="3624" y="8918"><tspan fill="rgb(0,0,0)" stroke="none">4096</tspan></tspan></tspan></text>
 <text class="TextShape"><tspan class="TextParagraph" font-family="Liberation Sans, sans-serif" font-size="346px" font-weight="400"><tspan class="TextPosition" x="5143" y="8918"><tspan fill="rgb(0,0,0)" stroke="none">8192</tspan></tspan></tspan></text>
 <text class="TextShape"><tspan class="TextParagraph" font-family="Liberation Sans, sans-serif" font-size="346px" font-weight="400"><tspan class="TextPosition" x="6569" y="8918"><tspan fill="rgb(0,0,0)" stroke="none">16384</tspan></tspan></tspan></text>
 <text class="TextShape"><tspan class="TextParagraph" font-family="Liberation Sans, sans-serif" font-size="346px" font-weight="400"><tspan class="TextPosition" x="8088" y="8918"><tspan fill="rgb(0,0,0)" stroke="none">32768</tspan></tspan></tspan></text>
 <text class="TextShape"><tspan class="TextParagraph" font-family="Liberation Sans, sans-serif" font-size="346px" font-weight="400"><tspan class="TextPosition" x="9607" y="8918"><tspan fill="rgb(0,0,0)" stroke="none">65536</tspan></tspan></tspan></text>
 <text class="TextShape"><tspan class="TextParagraph" font-family="Liberation Sans, sans-serif" font-size="346px" font-weight="400"><tspan class="TextPosition" x="11032" y="8918"><tspan fill="rgb(0,0,0)" stroke="none">131072</tspan></tspan></tspan></text>
 <text class="TextShape"><tspan class="TextParagraph" font-family="Liberation Sans, sans-serif" font-size="346px" font-weight="400"><tspan class="TextPosition" x="12551" y="8918"><tspan fill="rgb(0,0,0)" stroke="none">262144</tspan></tspan></tspan></text>
 <text class="TextShape"><tspan class="TextParagraph" font-family="Liberation Sans, sans-serif" font-size="346px" font-weight="400"><tspan class="TextPosition" x="14069" y="8918"><tspan fill="rgb(0,0,0)" stroke="none">524288</tspan></tspan></tspan></text>
 <text class="TextShape"><tspan class="TextParagraph" font-family="Liberation Sans, sans-serif" font-size="346px" font-weight="400"><tspan class="TextPosition" x="1283" y="8480"><tspan fill="rgb(0,0,0)" stroke="none">0</tspan></tspan></tspan></text>
 <text class="TextShape"><tspan class="TextParagraph" font-family="Liberation Sans, sans-serif" font-size="346px" font-weight="400"><tspan class="TextPosition" x="436" y="7118"><tspan fill="rgb(0,0,0)" stroke="none">20,000</tspan></tspan></tspan></text>
 <text class="TextShape"><tspan class="TextParagraph" font-family="Liberation Sans, sans-serif" font-size="346px" font-weight="400"><tspan class="TextPosition" x="436" y="5757"><tspan fill="rgb(0,0,0)" stroke="none">40,000</tspan></tspan></tspan></text>
 <text class="TextShape"><tspan class="TextParagraph" font-family="Liberation Sans, sans-serif" font-size="346px" font-weight="400"><tspan class="TextPosition" x="436" y="4396"><tspan fill="rgb(0,0,0)" stroke="none">60,000</tspan></tspan></tspan></text>
 <text class="TextShape"><tspan class="TextParagraph" font-family="Liberation Sans, sans-serif" font-size="346px" font-weight="400"><tspan class="TextPosition" x="436" y="3034"><tspan fill="rgb(0,0,0)" stroke="none">80,000</tspan></tspan></tspan></text>
 <text class="TextShape"><tspan class="TextParagraph" font-family="Liberation Sans, sans-serif" font-size="346px" font-weight="400"><tspan class="TextPosition" x="251" y="1673"><tspan fill="rgb(0,0,0)" stroke="none">100,000</tspan></tspan></tspan></text>
 <text class="TextShape"><tspan class="TextParagraph" font-family="Liberation Sans, sans-serif" font-size="346px" font-weight="400"><tspan class="TextPosition" x="251" y="312"><tspan fill="rgb(0,0,0)" stroke="none">120,000</tspan></tspan></tspan></text>
 <path fill="rgb(0,69,134)" stroke="none" d="M 15791,4210 L 15685,4210 15685,4004 15896,4004 15896,4210 15791,4210 Z"/>
 <path fill="rgb(255,66,14)" stroke="none" d="M 15791,4698 L 15685,4698 15685,4491 15896,4491 15896,4698 15791,4698 Z"/>
 <path fill="rgb(255,211,32)" stroke="none" d="M 15791,5186 L 15685,5186 15685,4979 15896,4979 15896,5186 15791,5186 Z"/>
 <path fill="rgb(87,157,28)" stroke="none" d="M 15791,5673 L 15685,5673 15685,5467 15896,5467 15896,5673 15791,5673 Z"/>
 <text class="TextShape"><tspan class="TextParagraph" font-family="Liberation Sans, sans-serif" font-size="346px" font-weight="400"><tspan class="TextPosition" x="15996" y="4224"><tspan fill="rgb(0,0,0)" stroke="none">random accesses, unboxed</tspan></tspan></tspan></text>
 <text class="TextShape"><tspan class="TextParagraph" font-family="Liberation Sans, sans-serif" font-size="346px" font-weight="400"><tspan class="TextPosition" x="15996" y="4712"><tspan fill="rgb(0,0,0)" stroke="none">random accesses, boxed</tspan></tspan></tspan></text>
 <text class="TextShape"><tspan class="TextParagraph" font-family="Liberation Sans, sans-serif" font-size="346px" font-weight="400"><tspan class="TextPosition" x="15996" y="5199"><tspan fill="rgb(0,0,0)" stroke="none">sequential accesses, unboxed</tspan></tspan></tspan></text>
 <text class="TextShape"><tspan class="TextParagraph" font-family="Liberation Sans, sans-serif" font-size="346px" font-weight="400"><tspan class="TextPosition" x="15996" y="5687"><tspan fill="rgb(0,0,0)" stroke="none">sequential accesses, boxed</tspan></tspan></tspan></text>
 <text class="TextShape"><tspan class="TextParagraph" font-family="Liberation Sans, sans-serif" font-size="311px" font-weight="400"><tspan class="TextPosition" x="7102" y="9312"><tspan fill="rgb(0,0,0)" stroke="none">Array size</tspan></tspan></tspan></text>
 <text class="TextShape" transform="rotate(-90 386 5198)"><tspan class="TextParagraph" font-family="Liberation Sans, sans-serif" font-size="318px" font-weight="400"><tspan class="TextPosition" x="386" y="5198"><tspan fill="rgb(0,0,0)" stroke="none">Time (ms)</tspan></tspan></tspan></text>
</svg>